<?xml version="1.0" encoding="utf-8"?>
<!-- Generator: Adobe Illustrator 23.0.1, SVG Export Plug-In . SVG Version: 6.00 Build 0)  -->
<svg version="1.1" id="e4a29051-0261-4825-9335-e571eb893d0c"
	 xmlns="http://www.w3.org/2000/svg" xmlns:xlink="http://www.w3.org/1999/xlink" x="0px" y="0px" viewBox="0 0 420.5 395.4"
	 style="enable-background:new 0 0 420.5 395.4;" xml:space="preserve">
<style type="text/css">
	.st0{opacity:0.12;fill:url(#SVGID_1_);enable-background:new    ;}
	.st1{opacity:0.12;fill:url(#SVGID_2_);enable-background:new    ;}
	.st2{fill:#F05424;}
	.st3{fill:#D6DCDB;}
	.st4{fill:#FFFFFF;}
	.st5{fill:#F79A41;}
	.st6{fill:#418ECC;}
	.st7{fill:#8265AC;}
	.st8{opacity:0.15;}
	.st9{opacity:0.26;fill:#418ECC;enable-background:new    ;}
	.st10{opacity:0.26;fill:#F79A41;enable-background:new    ;}
	.st11{opacity:0.26;fill:#8265AC;enable-background:new    ;}
	.st12{fill:#6773B7;}
	.st13{fill:#F0EEEE;}
	.st14{fill:#734024;}
	.st15{opacity:0.3;}
	.st16{fill:#010101;}
	.st17{fill:#E9F6F5;}
	.st18{fill:#CFDFE0;}
	.st19{fill:#F9F7F0;}
	.st20{fill:#2EA3DC;}
	.st21{fill:#3B7BBF;}
	.st22{fill:#F3D4B4;}
	.st23{fill:#0A1B33;}
	.st24{fill:#E6C49F;}
	.st25{fill:#E3BA97;}
	.st26{fill:#181B46;}
	.st27{fill:#E4362F;}
	.st28{fill:#FFE0BD;}
	.st29{opacity:0.3;fill:#F79A41;enable-background:new    ;}
	.st30{opacity:0.39;fill:#CC902A;enable-background:new    ;}
	.st31{fill:#292D2E;}
	.st32{fill:#D6D5D5;}
	.st33{fill:#545453;}
	.st34{fill:#A4A3AD;}
	.st35{fill:#F2F2F2;}
	.st36{fill:#A7A8AB;}
	.st37{fill:#383938;}
	.st38{fill:#E6E6E5;}
	.st39{fill:#5A5A5D;}
	.st40{fill:#5B4B43;}
	.st41{fill:#F8FCFF;}
	.st42{fill:#BAE4F0;}
	.st43{fill:#7DD0E7;}
	.st44{opacity:0.5;}
	.st45{fill:#ECAF1F;}
	.st46{opacity:0.55;fill:#ECAF1F;enable-background:new    ;}
	.st47{fill:#67351D;}
	.st48{opacity:0.3;fill:#3F291E;enable-background:new    ;}
	.st49{fill:#E0EAF7;}
	.st50{fill:#C2DFF0;}
	.st51{fill:#FCD09E;}
	.st52{opacity:0.18;fill:#2EA3DC;enable-background:new    ;}
	.st53{opacity:0.45;fill:#00B1B5;enable-background:new    ;}
	.st54{fill:#33315C;}
	.st55{fill:#F3F3F3;}
	.st56{opacity:0.3;fill:#541818;enable-background:new    ;}
	.st57{fill:#541818;}
</style>
<title>2-about-us-123</title>
<linearGradient id="SVGID_1_" gradientUnits="userSpaceOnUse" x1="740.6288" y1="271.1231" x2="474.6788" y2="-46.5469" gradientTransform="matrix(1 1.000000e-02 1.000000e-02 -1 -329.3026 246.79)">
	<stop  offset="0" style="stop-color:#426DB3"/>
	<stop  offset="0.13" style="stop-color:#3F7AB8"/>
	<stop  offset="0.76" style="stop-color:#11BFD7"/>
</linearGradient>
<path class="st0" d="M419.5,382.6c-52.7,23-128.8,14.9-170.8-24.6c-13-12.3-24.1-27.1-39.8-35.7c-34.4-18.8-83.6-3.7-111.5-31.2
	c-24.2-23.8-17.4-65.3-35.3-94c-7.8-12.5-18.3-23.2-29.8-32.4C-9.9,131.3-3.8,46.7,38.7,21l373.7,12.6"/>
<linearGradient id="SVGID_2_" gradientUnits="userSpaceOnUse" x1="663.1827" y1="227.3378" x2="444.8927" y2="-33.4022" gradientTransform="matrix(1 0 0 -1 -326.55 242.26)">
	<stop  offset="0" style="stop-color:#426DB3"/>
	<stop  offset="0.13" style="stop-color:#3F7AB8"/>
	<stop  offset="0.76" style="stop-color:#11BFD7"/>
</linearGradient>
<path class="st1" d="M203.4-52.7l12.3,439"/>
<path class="st2" d="M420.5,0v357.9c-53.4,23.8-121,13.5-164.1-26.4c-13.3-12.4-24.8-27.4-40.8-36c-35.2-18.9-85.1-3.1-113.8-30.9
	c-24.8-24-18.2-66.3-36.7-95.4c-8-12.6-18.8-23.5-30.6-32.7C-8.5,102.8-12.8,26.5,30.2,0H420.5z"/>
<rect x="136.7" y="87.6" class="st3" width="219.3" height="129.6"/>
<rect x="142.8" y="90.1" class="st4" width="207.2" height="124.5"/>
<rect x="164.3" y="175" class="st5" width="9.5" height="23.9"/>
<rect x="185.8" y="154" class="st6" width="9.5" height="45"/>
<rect x="207.3" y="158.6" class="st5" width="9.5" height="40.3"/>
<rect x="228.8" y="135.8" class="st7" width="9.5" height="63.1"/>
<g class="st8">
	<rect x="185.8" y="154" class="st9" width="4.4" height="45"/>
</g>
<g class="st8">
	<rect x="164.3" y="175" class="st10" width="4.4" height="23.9"/>
</g>
<rect x="228.8" y="135.8" class="st11" width="4.4" height="63.1"/>
<g class="st8">
	<rect x="207.3" y="158.6" class="st10" width="4.4" height="40.3"/>
</g>
<polygon class="st12" points="243.4,205.5 158,205.5 158,114.6 159.3,114.6 159.3,204.2 243.4,204.2 "/>
<polygon class="st12" points="166.8,163.8 165.9,162.8 188.3,142.7 208.9,147.2 231.4,122.3 232.3,123.2 209.4,148.7 188.6,144.2 
	"/>
<polygon class="st12" points="234.1,126.8 227.8,120.8 235.9,118.6 "/>
<rect x="251.5" y="169.3" class="st7" width="8" height="8"/>
<rect x="251.5" y="183.3" class="st5" width="8" height="8"/>
<rect x="261.7" y="186.8" class="st13" width="25.4" height="4.6"/>
<rect x="261.7" y="172.7" class="st13" width="25.4" height="4.6"/>
<rect x="298.6" y="169.3" class="st6" width="8" height="8"/>
<rect x="298.6" y="183.3" class="st5" width="8" height="8"/>
<rect x="308.8" y="186.8" class="st13" width="25.4" height="4.6"/>
<rect x="308.8" y="172.7" class="st13" width="25.4" height="4.6"/>
<rect x="258.3" y="120.1" class="st13" width="75" height="1.7"/>
<rect x="252.4" y="124.2" class="st13" width="80.9" height="1.7"/>
<rect x="252.4" y="128.4" class="st13" width="80.9" height="1.7"/>
<rect x="252.4" y="132.5" class="st13" width="80.9" height="1.7"/>
<rect x="252.4" y="136.7" class="st13" width="80.9" height="1.7"/>
<rect x="252.4" y="140.8" class="st13" width="80.9" height="1.7"/>
<rect x="252.4" y="144.9" class="st13" width="80.9" height="1.7"/>
<rect x="252.4" y="149.1" class="st13" width="80.9" height="1.7"/>
<rect x="264" y="153.2" class="st13" width="69.4" height="1.7"/>
<path class="st14" d="M360.7,86.5c0,0.9-0.8,1.7-1.7,1.7l0,0H133.7c-0.9,0-1.7-0.8-1.7-1.7c0,0,0,0,0,0l0,0c0-0.9,0.8-1.7,1.7-1.7
	l0,0H359C360,84.8,360.7,85.6,360.7,86.5C360.7,86.5,360.7,86.5,360.7,86.5z"/>
<path class="st14" d="M360.7,218.2c0,0.9-0.7,1.7-1.7,1.7c0,0,0,0,0,0H133.7c-0.9,0-1.7-0.8-1.7-1.7l0,0l0,0c0-0.9,0.8-1.7,1.7-1.7
	l0,0H359C360,216.5,360.7,217.2,360.7,218.2L360.7,218.2z"/>
<path class="st14" d="M99.3,366.8l1.2-65.4h-4.4l1.3,65.4c-0.2,0.5,0.1,1.1,0.6,1.3c0.5,0.2,1.1-0.1,1.3-0.6
	C99.4,367.3,99.4,367,99.3,366.8L99.3,366.8z"/>
<path class="st14" d="M59.4,359.2l25.3-60.3l-4-1.6l-23,61.2c-0.3,0.5-0.1,1.2,0.4,1.5C58.6,360.1,59.2,359.7,59.4,359.2z"/>
<path class="st14" d="M137.5,359.2l-25.3-60.3l4-1.6l23,61.2c0.3,0.5,0.1,1.2-0.4,1.5C138.2,360.1,137.6,359.8,137.5,359.2z"/>
<g class="st15">
	<path class="st16" d="M96.2,303.2h3.2L98.3,368h0.1c0.6-0.1,1-0.6,1-1.2l1.2-65.4h-4.4L96.2,303.2z"/>
</g>
<path class="st17" d="M128.4,304.5c-4.4,3.6-11,6.9-27.5,7.2c-21.9,0.4-33.3-2-39.5-13.3c-10.4-18.8,2.6-79.6,23.1-66.1
	c17.1,11.3,20.5,47.2,22.8,52.1S139.1,295.8,128.4,304.5z"/>
<path class="st18" d="M104.6,307.1c-21.8,0.4-33.3-2-39.5-13.3c-7.1-12.8-3.3-45.2,6.4-60.2C59.1,245,53.4,284,61.3,298.4
	c6.2,11.3,17.6,13.7,39.5,13.3c16.6-0.3,23.1-3.6,27.5-7.2c1.2-0.8,2.1-2.1,2.3-3.5C126.2,304.1,119.5,306.8,104.6,307.1z"/>
<path class="st19" d="M113.9,163.3c1.5-4.3,2.9-8.8,5.2-6.5s2.3,2.1,1.4,5.4S112.6,166.9,113.9,163.3z"/>
<path class="st20" d="M114.6,180.5c1.2-5,2.1-10.1,2.6-15.2l-3.3-2.2c0,0-6.7,13.8-10.3,24.2L85,182.5l-2.3-0.5l6.1,12.1
	c0,0,18,2.6,19.1,2S112.8,187.2,114.6,180.5z"/>
<path class="st21" d="M107.8,196.1c-1.1,0.6-19.1-2-19.1-2L82.7,182l2.3,0.5c1.7,0.7,4.4,3.4,6.6,6.3c1.1,1.8,2.9,3.1,4.9,3.7
	c2.9,1.2,5.9,2,9,2.5c2.5,0.2,2.7,0.3,3.3-0.4C108.8,195.2,108.4,195.9,107.8,196.1z"/>
<path class="st20" d="M63.9,218.6c1.2,3,1.4,6.3,0.7,9.5c-1.4,6.3,0.2,6.7,0.2,6.7s8.5,5.4,15.6,7.6c5.1,1.6,9.4,1.3,9.3-4.3v-0.1
	c0-0.3,0-0.7,0-1c-0.2-12.6,2.4-13.2,3-27.3c0.7-14.4-3.2-22.5-7-26s-9.1-3.6-18.9-1.3c-7.4,1.7-9.8,3.7-9.8,9.2
	c0.1,2.3,0.4,4.5,0.8,6.7C59,205.2,61.9,213.5,63.9,218.6z"/>
<path class="st21" d="M63.9,218.6c1.2,3,1.4,6.3,0.7,9.5c-1.4,6.3,0.2,6.7,0.2,6.7s8.5,5.4,15.6,7.6l6.6-0.6l2.6-2.1V238
	c0-0.3,0-0.7,0-1c-3.3,0.3-6.7,0.2-10-0.3c-3.4-0.4-6.6-1.2-9.8-2.4c-1.7-0.7-2.7-2.4-2.4-4.3c0.5-2.9,0.9-5.8,0.9-8.8
	c0-2.8-1.3-7.5-2.4-10.8c-0.8-2.6-1.1-5.3-0.9-8c0.2-3,0.2-6.1,0-9.1l-5.2-2.8l-2.9,1.1c0.1,2.3,0.4,4.5,0.8,6.7
	C59,205.2,61.9,213.5,63.9,218.6z"/>
<path class="st22" d="M63.8,245.4c-0.6,0.1-2.1-2.6-2.1-2.6l0.6-0.9c0.4-0.5,0.9-0.8,1.5-1h0.1c0.5-0.2,1.1,0,1.4,0.5
	c0.5,0.7,1.1,1.4,1.9,1.4l0,0c0,0,0.1,0,0.1,0C68,242.7,64.5,245.2,63.8,245.4z"/>
<path class="st23" d="M87.7,157.9c0.4,1.1,0.2,2.3-0.3,3.3l-4.1-5.5h2.8L87.7,157.9z"/>
<path class="st19" d="M65.7,165.1c0.2,7.1,6.3,11.2,6.3,11.2l-0.4,6.4l4.1,2.7l2.8,1.8l1.6-3.4l0.2-4.2c0-1,0.7-1.8,1.7-2
	c1.5-0.4,2.9-1.2,4-2.4c0.1-0.1,0.2-0.2,0.3-0.3l0,0c2.7-3.6,3.7-17.6-5.5-21.6C71.4,149.3,65.5,158,65.7,165.1z"/>
<path class="st24" d="M75.9,181.6l-0.3,3.9l2.8,1.8l1.6-3.4l0.2-4.2c0-1,0.7-1.8,1.7-2c1.5-0.4,2.9-1.2,4-2.4
	c0.1-0.1,0.2-0.2,0.3-0.3c-1.8,1-3.7,1.6-5.8,1.8C78,177,76.1,179.1,75.9,181.6z"/>
<path class="st23" d="M75.5,167.3c-0.4,0.1-0.7-0.4-0.7-0.4s-2-4.5-2.7-5.1c-1.2-1.2-4.1-1.1-4.3,2.7c-0.2,3,3.3,9.3,4.4,11.1
	c0.2,0.3,0.1,0.7-0.2,0.9c-0.1,0.1-0.2,0.1-0.4,0.1l0,0c-0.2,0-0.3-0.1-0.5-0.2c-2.3-2-12.2-11.6-4.3-20.6c0,0,6.3,0.4,7.3,3.4
	c0.7,2.4,1.2,4.7,1.6,7.2C75.8,166.5,75.9,167.2,75.5,167.3z"/>
<path class="st23" d="M87.7,157.9c0,0-5.5-4.3-13.9,0.9l-6.9-1.8c0,0-0.3-0.1-0.1-1.1s0.9-11.1,12.9-8.8
	C86.6,148.4,90.9,153.2,87.7,157.9z"/>
<path class="st25" d="M65.5,240.9c0.4,0.5,0.8,1,1.3,1.4c0.3,0.2,0.3-0.2,0.2-0.4S65.5,240.6,65.5,240.9z"/>
<path class="st23" d="M71.7,176.7L71.7,176.7c-0.2,0-0.3-0.1-0.5-0.2c-2.3-2-12.2-11.6-4.3-20.6c-0.2,0.9-0.3,1.9-0.2,2.9
	C66.7,158.8,61.6,167,71.7,176.7z"/>
<path class="st26" d="M60.3,358.8c0.2,1.1,0.4,2.2,0.4,3.3c0.2,1.4,1.5,1.8,2.2,2.9s2,3.2-2.8,3.3c-5.2,0.1-8.2-0.3-7.4-3.2
	s1-4.2,1-5.2c-0.2-0.9,0.1-1.8,0.6-2.5C54.9,356.9,59.6,355.9,60.3,358.8z"/>
<path class="st27" d="M61.5,266c0,0-8.1-13,3.4-31.1c0,0,9,4,16.3,4.5c2.9,0.3,5.7,0.2,8.6-0.2c0,0,0.5,17.4,0.5,26.8H61.5z"/>
<path class="st27" d="M66.9,303.8c2.2-9.4-7-11.1-10-4.3c-4.1,9.6-3.8,51.9-3.6,58.1c0,0.8,0.5,0.6,0.9,0.5c0.9-0.4,1.9-0.6,3-0.5
	c1,0.3,2,0.7,3,1.3C61.1,350.4,64.8,312.9,66.9,303.8z"/>
<path class="st27" d="M75.2,267.2c1-11.7-3.5-20.8-10.5-16.9c-2.9,1.6-4,4.9-4.4,7.9s-2.6,34.9-3.3,40.6c-1.7,13,8.1,9.5,9.2,5.9
	C69,295.7,74.7,273.6,75.2,267.2z"/>
<path class="st27" d="M91.7,303.2c0.4-8.8-7-8.3-9.9-1.5c-6.4,14.7,0,46.1,1.4,60.9c1-1.7,2.8-2.9,4.8-3.1c0.6,0.1,1.2,0.4,1.6,0.9
	C89.3,342.2,91.3,312.5,91.7,303.2z"/>
<path class="st27" d="M82.1,304.1c1.1,3.6,10.5,7.7,9.5-5.3c-0.4-5.8-1.6-37.7-1.8-40.8s-0.7-7.6-2.2-8.1
	c-7.4-2.8-14.6,6.4-12.7,17.9C76.2,275.5,79.8,296.7,82.1,304.1z"/>
<path class="st26" d="M89.5,360.6c1.3,1.6,2.9,2.9,4.8,3.7c2.6,1.1,8.1,1.7,5,2.7s-6.6,0.4-8.4,0.1c-1.9-0.3-3.8-0.4-5.7-0.3
	c-2.8,0-2.8-0.2-2.4-3.4C83.4,359.1,88.2,358.1,89.5,360.6z"/>
<path class="st28" d="M63.3,238.3l1.4,2c1.6-0.2,3.1,0.6,3.8,2c1.2,2.4-3.1,5.4-4.3,4.3s-3.9-6.2-3.9-6.2L63.3,238.3z"/>
<path class="st20" d="M52.5,231.9c2.9,3,5.5,6.1,8,9.4l0.7-0.5l2.8-1.9c0,0-5.8-12.2-7.5-18.2c-0.7-2.5-1.9-4.8-3.4-6.9l0.3-0.3
	c4.2-4.5,7.5-10.3,10-13.9c1.2-1.7,2-3.7,2.4-5.7c0.2-1.4,0.2-2.8,0-4.2c-0.4-2.2-1.3-4.3-3.5-4.8c-0.8-0.2-1.6-0.1-2.4,0.2
	c-0.8,0.3-1.5,0.9-2,1.7c-3.3,5.3-12.6,19.7-14.1,23.3c-0.2,0.6-0.4,1.2-0.5,1.8c0,0.2-0.1,0.4-0.1,0.6
	C42.9,218.4,48.7,228,52.5,231.9z"/>
<path class="st21" d="M52.5,231.9c2.9,3,5.5,6.1,8,9.4l0.7-0.5c0,0-4.3-6-6.3-8.4c-2.7-3.1-5.1-6.4-7.1-10
	c-1.9-3.4-2.7-9.9-1.7-11.8s6.4-10,7.6-11.5s10.7-11.1,8-13.8c-0.4-0.3-1-0.5-1.5-0.4c-0.8,0.3-1.5,1-2,1.7
	c-3.3,5.3-12.6,19.7-14.1,23.3c-0.2,0.6-0.4,1.2-0.5,1.8c0,0.2-0.1,0.4-0.1,0.6C42.9,218.4,48.7,228,52.5,231.9z"/>
<path class="st27" d="M67.8,240.4c0,0-1.3,4.6-7.2,7.3c-5,2.3,8.1,3.6,8.4,3.1s2.8-9,2.8-9L67.8,240.4z"/>
<path class="st14" d="M168.3,363.1l1.2-65.8h-4.4l1.2,65.8c-0.1,0.6,0.4,1.1,1,1.2C167.9,364.2,168.3,363.7,168.3,363.1z"/>
<path class="st14" d="M128.1,355.5l25.4-60.7l-4-1.6l-23.1,61.6c-0.3,0.4-0.3,1.1,0.2,1.4c0.4,0.3,1.1,0.3,1.4-0.2
	C128,355.8,128.1,355.7,128.1,355.5L128.1,355.5z"/>
<path class="st14" d="M206.6,355.5l-25.4-60.7l4.1-1.6l23.1,61.6c0.3,0.4,0.3,1.1-0.2,1.4c-0.4,0.3-1.1,0.3-1.4-0.2
	C206.7,355.8,206.6,355.7,206.6,355.5L206.6,355.5z"/>
<path class="st17" d="M199.2,274.9c0,25.2-14.3,31.3-31.9,31.3s-31.9-6-31.9-31.3s14.3-49.6,31.9-49.6S199.2,249.6,199.2,274.9z"/>
<path class="st18" d="M169.9,300.5c-17.6,0-31.9-6-31.9-31.3c0-8.5,1.6-16.9,4.6-24.8c-4.7,9.5-7.2,19.9-7.2,30.5
	c0,25.2,14.3,31.3,31.9,31.3c13.8,0,25.5-3.7,30-17.5C191.7,297.8,181.5,300.5,169.9,300.5z"/>
<path class="st21" d="M152,268.3c0,0-4.1,8.7-4.9,14.5c-1.2,8.5,0.6,12.2,11.5,12.5s14-1.8,19.2-1.8s11.2-9.8,4.5-21.5L152,268.3z"
	/>
<path class="st28" d="M156.7,339.7l-0.2,3.3c0,0-3.2,9.5-3.4,11.9c-0.3,4.2,1.6,8.8,3.4,8.8c2,0,4.9-2.6,6.1-7.9
	c0.9-3.5-0.5-10.5,0-12.1s1.5-4.8,1.5-4.8L156.7,339.7z"/>
<path class="st26" d="M162.8,353.8c-1.4,1.4-4.3,4.4-5.4,4.4s-3.2-3.7-3.9-5.2c-0.2,0.6-0.3,1.3-0.4,1.9c-0.3,4.2,1.6,8.8,3.3,8.8
	c2,0,4.9-2.6,6.1-7.9C162.7,355.1,162.8,354.4,162.8,353.8z"/>
<path class="st20" d="M163.9,341.3c0,0,13-41,14.6-46.1s2.9-14.6-4.6-16.3c-6.5-1.4-9.2,8.2-10.4,14.2s-7.2,45.8-7.2,45.8
	s-0.7,2.2,3.2,2.9S163.9,341.3,163.9,341.3z"/>
<path class="st21" d="M171.6,278.9c-2.8,3.9-4.3,11-5,15c-1.2,6-7.1,46.6-7.1,46.6s1,0.5,3.2,1.5c-0.3,0-0.7,0-1,0
	c-4.2,0.3-5.2-2.3-5.2-2.3s5.9-40.6,7.1-46.6C164.5,287.9,166.7,279.9,171.6,278.9z"/>
<path class="st28" d="M140.5,338.1l-0.4,3.3c0,0-3.9,9.2-4.2,11.6c-0.6,4.1,0.9,8.9,2.7,9c2,0.1,5-2.3,6.6-7.4
	c1.1-3.5,0.2-10.5,0.8-12s1.8-4.6,1.8-4.6L140.5,338.1z"/>
<path class="st26" d="M145.5,352.6c-1.5,1.3-4.6,4.1-5.7,4s-3-3.9-3.5-5.5c-0.2,0.6-0.4,1.2-0.5,1.9c-0.6,4.1,0.9,8.9,2.7,9
	c2,0.1,5-2.3,6.6-7.4C145.3,353.9,145.5,353.3,145.5,352.6z"/>
<path class="st20" d="M147.5,340.2c0,0,15.9-40,17.9-44.9s4-14.4-3.4-16.6c-6.4-1.9-9.8,7.6-11.4,13.4s-10.4,45.1-10.4,45.1
	s-0.9,2.2,3,3.1S147.5,340.2,147.5,340.2z"/>
<path class="st21" d="M159.6,278.5c-3.1,3.6-5,10.7-6.1,14.7c-1.6,5.9-10.4,46-10.4,46s1,0.6,3,1.7c-0.3,0-0.7-0.1-1-0.1
	c-4.2,0-5-2.6-5-2.6s8.8-40.1,10.4-46C151.9,287,154.7,279.2,159.6,278.5z"/>
<path class="st23" d="M159,185.3c0,0,1.4-6.2,11.7-4.2c9.8,1.9,9.2,15.6,10.4,19.3c1,3,2.2,5.9,3.5,8.8c0.2,0.4,0,0.8-0.4,1
	c0,0,0,0,0,0c-3.6,1.2-19.1,5.7-29.6-0.6c-0.9-0.5-1.7-1.4-2.1-2.4c-0.2-0.5-0.3-1-0.3-1.5c0.1-1.6,1-3.6,0.3-8.4
	S152.7,185.2,159,185.3z"/>
<path class="st19" d="M156,198.6c-0.9,1.3-1.2,2.8-0.8,4.3c0.1,1.5,1.4,2.6,2.9,2.6l0.3-2.7l-0.7-4.7L156,198.6z"/>
<path class="st19" d="M179,198.6c0.9,1.3,1.2,2.8,0.8,4.3c-0.2,1.5-1.4,2.6-2.9,2.6l-0.3-2.7l0.7-4.7L179,198.6z"/>
<path class="st7" d="M180.7,251c-0.2,2.5-0.1,4.9,0.2,7.4l1.4,14.6c-2.1,0.8-4.3,1.4-6.5,1.8c-5.5,1-15-1.8-23.9-4.8
	c0,0,3.2-8,3.3-14.5c0-0.9,0-1.8-0.1-2.8c-0.2-2-0.5-4-0.9-6c-0.1-0.5-0.2-1-0.3-1.5c-0.3-1.9-0.7-4-0.9-6.2
	c-0.2-2.1-0.4-4.3-0.3-6.4c-0.4-3.8-0.1-7.7,1-11.4c0,0,7.3-3,10.3-3.4c0,0,5.4-1.3,9.3,0c5,1.7,7.7,2.6,10,3.9
	c1.1,2.6,1.5,5.4,1.1,8.2c-0.9,5.5-2.3,13.1-3.1,17.6C180.9,249.2,180.7,250.5,180.7,251z"/>
<path class="st29" d="M182.2,274.4c-2.2-0.2-4.4-0.1-6.5,0.4c-1.5-4-1-18.3-1-18.3c-3.7-0.8-7.3-1.9-10.8-3.3c-1.7,0.8-7,2-8.7,2.3
	c0-0.9,0-1.8-0.1-2.8c-0.2-2-0.5-4-0.9-6c2-1.4,5.7,1.7,5.7,1.7l18.8-2.9c0.9,0.5,1.7,1.2,2.5,1.9c-0.3,1.8-0.5,3.1-0.5,3.7
	c-0.2,2.5-0.1,4.9,0.2,7.4C181.2,261.5,182.2,274.4,182.2,274.4z"/>
<path class="st19" d="M178.2,195.5c0,2.8-0.6,9.2-2.3,13.4c-1,2.4-2.7,4.5-4.9,5.8c0,1.1,0,2.6,0.7,2.7c0.2,0.5,0.5,0.6,0.4,1.4
	c-0.5,2.7-3.7,5.8-4.5,6.5s-1.3,0-1.3,0c-0.9-1.1-1.7-2.2-2.3-3.4c-0.4-0.7-0.7-1.4-0.9-1.9c-0.3-0.7-0.2-1.5,0.2-2.2
	c0.9-0.1,0.5-1.9,0.5-2.9c-1.9-1.5-3.3-3.4-4.3-5.5c-2.3-4.7-2.4-10.7-2.4-13.9c0-5.8,4.7-10.6,10.6-10.6
	C173.5,184.9,178.2,189.6,178.2,195.5L178.2,195.5z"/>
<path class="st24" d="M170.9,214.8c-0.6,0.2-3.2,1.2-3.7,2.3c-0.5,1.2-0.9,3.2-1.4,3.8c-0.5,0.4-1.2,0.8-1.8,1
	c-0.3-0.6-0.6-1.2-0.9-1.9c-0.3-0.7-0.2-1.5,0.2-2.2c0.8-0.1,0.5-1.9,0.5-2.9c1.1,0.4,2.2,0.6,3.3,0.6
	C168.4,215.4,169.7,215.1,170.9,214.8z"/>
<path class="st19" d="M174.8,242.8c0.7-0.1,1.5-0.3,2.2-0.3c0.5,0-1,4.8-1,4.8c-0.3-0.3-0.8-0.6-1.2-0.7c-0.7-0.1-0.4-3.7-0.4-3.7
	L174.8,242.8z"/>
<path class="st7" d="M183.2,221.6c0,0,4.8,2.5,4.5,6.2s-5.9,24-6.9,26.7s-25.4-5.5-25.4-5.5c0.3-1.4,0.8-2.8,1.4-4.2
	c0,0,16.7,1.8,18.9,2.6c0,0,3.4-16.1,4.4-19S183.2,221.6,183.2,221.6z"/>
<path class="st7" d="M175.1,246.9c-2.5,1.4-21.8,9.4-23.6,8.9s-3.9-2.1-4.2-6.8c-0.3-4.2,2.2-20.7,2.7-24.5c0.1-0.6,0.3-1.2,0.7-1.6
	c0.1-0.1,0.2-0.2,0.4-0.4c0.8-0.6,1.6-1,2.5-1.4c0.2,0.6,0.2,2.8,0.5,6.7c0,0.4,0,0.9-0.1,1.3c-0.5,2.2-0.9,4.5-1,6.8
	c0,0.1,0,0.2,0,0.3c0.2,1.7,1.4,4.8,1.4,6.1c0,3.1,0,3.6,0,3.6c0.7-0.1,3.1-0.5,6-1.1l14.4-2.6C175.5,244,175.1,246.9,175.1,246.9z"
	/>
<path class="st23" d="M154.9,199.6c2.1-0.4,3.9-1.5,5.3-3.1c1-1.4,1.8-3,2.4-4.7c0,0,1.2,2.5,5.1,4.3c3.9,1.8,8,2.9,12.2,3.4
	c0,0,0.3-9.1-2.7-12.9s-10.8-5.9-16.1-2.6S154.9,199.6,154.9,199.6z"/>
<path class="st30" d="M153.1,247.4c-2-1.7,0.4-4.9,0.2-6s-0.2-1.3-0.3-2.4c-0.1-0.9-0.1-1.8,0-2.7c0.2,1.7,1.4,4.8,1.4,6.1
	c0,3.1,0,3.6,0,3.6c0.7-0.1,7.1-1.3,10.1-1.8C165.2,244.6,154.4,248.5,153.1,247.4z"/>
<path class="st19" d="M156.5,245.7l-2.1,0.4c-1.3-0.1-2.6-0.1-3.9-0.1c-1,0.1-2,0.3-3,0.6c-0.2,0.1-0.4-0.1-0.5-0.3
	c-0.2-0.7-0.3-1.4-0.3-2.1c0.1-0.7,0.3-1.4,0.5-2c0.1-0.2,0.3-0.4,0.5-0.5c1-0.2,2-0.3,3-0.1c1.2,0,2.3,0.6,3,1.6l0.9,1
	c0.3,0.3,0.7,0.5,1.1,0.6l1,0.2l-0.2,0.4C156.5,245.5,156.5,245.6,156.5,245.7z"/>
<rect x="85.9" y="268.3" class="st31" width="41.9" height="2.6"/>
<rect x="86.4" y="265.7" class="st32" width="38" height="2.1"/>
<rect x="84.4" y="267.3" class="st33" width="41.9" height="1"/>
<rect x="87.1" y="266.5" class="st34" width="36.4" height="0.2"/>
<rect x="87.1" y="267" class="st34" width="36.4" height="0.2"/>
<rect x="87.1" y="266" class="st34" width="36.4" height="0.2"/>
<rect x="275.2" y="266.2" class="st35" width="17.3" height="4.3"/>
<rect x="287" y="266.2" class="st36" width="5.5" height="4.3"/>
<rect x="274.1" y="266.2" class="st36" width="17.3" height="0.5"/>
<rect x="274.1" y="270" class="st36" width="17.3" height="0.5"/>
<rect x="287.5" y="266.2" class="st37" width="22.6" height="4.3"/>
<rect x="289.9" y="267.2" class="st36" width="12.1" height="2.3"/>
<rect x="290.6" y="267.3" class="st38" width="10.8" height="2"/>
<path class="st36" d="M305.5,268.3c-0.2,0.8,0.3,1.6,1.1,1.7c0.8,0.2,1.6-0.3,1.7-1.1c0.2-0.8-0.3-1.6-1.1-1.7c-0.1,0-0.2,0-0.3,0
	C306.2,267.1,305.6,267.6,305.5,268.3z"/>
<rect x="276.2" y="266.9" class="st36" width="9.9" height="0.4"/>
<rect x="276.2" y="268.6" class="st36" width="9.9" height="0.4"/>
<rect x="276.2" y="269.2" class="st36" width="9.9" height="0.4"/>
<rect x="279.3" y="267.9" class="st36" width="6.1" height="0.4"/>
<rect x="276.2" y="267.9" class="st36" width="2.6" height="0.4"/>
<rect x="271.9" y="262" class="st35" width="17.3" height="4.3"/>
<rect x="283.8" y="262" class="st36" width="5.5" height="4.3"/>
<rect x="270.9" y="262" class="st36" width="17.3" height="0.5"/>
<rect x="270.9" y="265.8" class="st36" width="17.3" height="0.5"/>
<rect x="284.2" y="262" class="st39" width="22.6" height="4.3"/>
<rect x="286.7" y="263" class="st36" width="12.1" height="2.3"/>
<rect x="287.3" y="263.1" class="st38" width="10.8" height="2"/>
<ellipse class="st36" cx="303.7" cy="264.1" rx="1.4" ry="1.1"/>
<rect x="273" y="262.7" class="st36" width="9.9" height="0.4"/>
<rect x="273" y="264.4" class="st36" width="9.9" height="0.4"/>
<rect x="273" y="265" class="st36" width="9.9" height="0.4"/>
<rect x="276" y="263.7" class="st36" width="6.1" height="0.4"/>
<rect x="273" y="263.7" class="st36" width="2.6" height="0.4"/>
<rect x="275.2" y="257.8" class="st35" width="17.3" height="4.3"/>
<rect x="287" y="257.8" class="st36" width="5.5" height="4.3"/>
<rect x="274.1" y="257.8" class="st36" width="17.3" height="0.5"/>
<rect x="274.1" y="261.6" class="st36" width="17.3" height="0.5"/>
<rect x="287.5" y="257.8" class="st40" width="22.6" height="4.3"/>
<rect x="289.9" y="258.8" class="st36" width="12.1" height="2.3"/>
<rect x="290.6" y="258.9" class="st38" width="10.8" height="2"/>
<ellipse class="st36" cx="306.9" cy="259.9" rx="1.4" ry="1.1"/>
<rect x="276.2" y="258.6" class="st36" width="9.9" height="0.4"/>
<rect x="276.2" y="260.2" class="st36" width="9.9" height="0.4"/>
<rect x="276.2" y="260.9" class="st36" width="9.9" height="0.4"/>
<rect x="279.3" y="259.5" class="st36" width="6.1" height="0.4"/>
<rect x="276.2" y="259.5" class="st36" width="2.6" height="0.4"/>
<polygon class="st41" points="311.6,270.3 312.5,256.1 303.5,256.1 304.5,270.3 "/>
<polygon class="st42" points="305.3,269.5 304.4,257 311.6,257 310.8,269.5 "/>
<polygon class="st43" points="304.7,261.1 305.3,269.5 310.8,269.5 311.3,261.1 "/>
<g class="st44">
	<path class="st4" d="M305.9,267.7h1.5l-0.9-8.9c-0.2-1.6-1.7-1.7-1.4,0.1L305.9,267.7z"/>
</g>
<polyline class="st45" points="142.6,267.5 143.1,268.4 129,268.4 129.4,267.5 "/>
<polygon class="st46" points="129.4,267.5 129,268.4 134.4,268.4 134.9,267.5 "/>
<rect x="95.2" y="274" class="st14" width="5" height="98.5"/>
<rect x="301.2" y="274" class="st14" width="5" height="98.5"/>
<rect x="85.1" y="271.1" class="st14" width="231.3" height="4.3"/>
<rect x="82.6" y="270.3" class="st47" width="236.1" height="2"/>
<rect x="123.7" y="269.3" class="st33" width="49.9" height="1"/>
<path class="st32" d="M171.5,268c0,0-19.7-1.2-22.6,0.9c-4-1.8-23.1-0.9-23.1-0.9v1.3h45.7V268z"/>
<path class="st34" d="M171.5,268.8c-1.9-0.1-3.8-0.3-5.7-0.4s-3.8-0.2-5.7-0.3s-3.8-0.1-5.7,0c-1,0-1.9,0.1-2.8,0.2
	c-0.5,0.1-0.9,0.1-1.4,0.2c-0.5,0.1-0.9,0.2-1.3,0.5h0l0,0c-0.4-0.2-0.9-0.3-1.4-0.4c-0.5-0.1-0.9-0.2-1.4-0.2
	c-1-0.1-1.9-0.2-2.9-0.2c-1.9-0.1-3.9-0.1-5.8,0s-3.9,0.1-5.8,0.2s-3.9,0.2-5.8,0.3c3.9-0.3,7.7-0.6,11.6-0.7c1.9,0,3.9-0.1,5.8,0
	c1,0,1.9,0.1,2.9,0.2c0.5,0.1,1,0.1,1.4,0.2c0.5,0.1,1,0.2,1.4,0.4h-0.1c0.4-0.2,0.9-0.4,1.4-0.5c0.5-0.1,0.9-0.2,1.4-0.2
	c1-0.1,1.9-0.2,2.9-0.2c1.9-0.1,3.8,0,5.7,0C163.9,268.2,167.7,268.5,171.5,268.8z"/>
<path class="st34" d="M171.5,268.8c-1.9,0-3.8-0.1-5.7-0.1s-3.8-0.1-5.7-0.1s-3.8,0-5.7,0c-0.9,0-1.9,0.1-2.8,0.1
	c-0.5,0-0.9,0.1-1.4,0.1c-0.5,0-0.9,0.1-1.4,0.3h-0.1c-0.4-0.1-0.9-0.1-1.3-0.1l-1.4-0.1c-1,0-1.9,0-2.9,0c-1.9,0-3.8,0-5.7,0
	l-11.5,0.2l5.7-0.2l5.7-0.1c1.9,0,3.8,0,5.7,0c1,0,1.9,0,2.9,0c0.5,0,1,0,1.4,0c0.5,0,1,0.1,1.4,0.1h-0.1c0.5-0.1,0.9-0.2,1.4-0.3
	c0.5,0,1-0.1,1.4-0.1c1,0,1.9-0.1,2.8-0.1c1.9,0,3.8,0,5.7,0c1.9,0,3.8,0.1,5.7,0.1L171.5,268.8z"/>
<rect x="195.2" y="269.3" class="st33" width="49.9" height="1"/>
<path class="st32" d="M243,268c0,0-19.7-1.2-22.6,0.9c-4-1.8-23.1-0.9-23.1-0.9v1.3H243V268z"/>
<path class="st34" d="M243,268.8c-1.9-0.1-3.8-0.3-5.7-0.4s-3.8-0.2-5.7-0.3s-3.8-0.1-5.7,0c-1,0-1.9,0.1-2.8,0.2
	c-0.5,0.1-0.9,0.1-1.4,0.2c-0.5,0.1-0.9,0.2-1.3,0.5h0h-0.1c-0.4-0.2-0.9-0.3-1.4-0.4c-0.5-0.1-1-0.2-1.4-0.2
	c-1-0.1-1.9-0.2-2.9-0.2c-1.9-0.1-3.9-0.1-5.8,0s-3.9,0.1-5.8,0.2s-3.9,0.2-5.8,0.3c3.9-0.3,7.7-0.6,11.6-0.7c1.9,0,3.9-0.1,5.8,0
	c1,0,1.9,0.1,2.9,0.2c0.5,0.1,1,0.1,1.4,0.2c0.5,0.1,1,0.2,1.4,0.4h-0.1c0.4-0.2,0.9-0.4,1.4-0.5c0.5-0.1,1-0.2,1.4-0.2
	c1-0.1,1.9-0.2,2.9-0.2c1.9-0.1,3.8,0,5.7,0C235.5,268.2,239.2,268.5,243,268.8z"/>
<path class="st34" d="M243,268.8c-1.9,0-3.8-0.1-5.7-0.1s-3.8-0.1-5.7-0.1s-3.8,0-5.7,0c-0.9,0-1.9,0.1-2.8,0.1
	c-0.5,0-0.9,0.1-1.4,0.1c-0.5,0-0.9,0.1-1.4,0.3h-0.1c-0.5-0.1-0.9-0.1-1.4-0.1l-1.4-0.1c-1,0-1.9,0-2.9,0c-1.9,0-3.8,0-5.7,0
	l-11.5,0.2l5.7-0.2l5.7-0.1c1.9,0,3.8,0,5.7,0c1,0,1.9,0,2.9,0c0.5,0,1,0,1.4,0c0.5,0,1,0.1,1.4,0.1h-0.1c0.5-0.1,0.9-0.2,1.4-0.3
	c0.5,0,0.9-0.1,1.4-0.1c1,0,1.9-0.1,2.8-0.1c1.9,0,3.8,0,5.7,0c1.9,0,3.8,0.1,5.7,0.1L243,268.8z"/>
<polygon class="st28" points="269.1,354.6 270,359.6 273.8,359.6 275.4,359.3 274.2,351.5 "/>
<path class="st14" d="M274.7,353.1c-0.4,0.2-0.8,0.3-1.2,0.5c-1.6,0.5-3.3,0.9-4.9,1.1c-4.5-7.5-16.3-43.8-16.3-43.8
	c-1.1-4.6,5.8,1.3,8.7,1.1c0.9-0.1,1.8,0.1,2.7,0.4c2.7,1.2,6.8,8.9,6.8,8.9c1.1,2.7,1.9,5.4,2.5,8.2
	C274.2,335.1,274.7,353.1,274.7,353.1z"/>
<path class="st48" d="M274.7,353.1c-0.4,0.2-0.8,0.3-1.2,0.5c-0.3-2.2-0.7-5.7-1.3-11.4c-1.4-12.6-9.4-27-11.2-30.2
	c0.9-0.1,1.8,0.1,2.6,0.4c2.7,1.2,6.8,8.9,6.8,8.9c1.1,2.7,1.9,5.4,2.5,8.2C274.2,335.1,274.7,353.1,274.7,353.1z"/>
<path class="st26" d="M269.7,358.8c1,0,2-0.1,2.9-0.5c0.9-0.3,1.8-0.9,2.5-1.5c0,0,4,2.5,4,6.9c0,0.2-0.2,0.4-0.4,0.5
	c0,0-9.7,4.3-13,5.5c-1.8,0.6-3.5,1-5.3,1.4c-0.2,0.1-0.5,0-0.6-0.3c-0.3-0.8,0-1.6,0.7-2c1.5-1.1,3.1-2.1,4.3-3s2.3-3.6,3.2-4.3
	C268.8,360.8,269.4,359.9,269.7,358.8z"/>
<path class="st14" d="M289.8,380.8l1.4-75.5h-5l1.4,75.5c-0.1,0.6,0.2,1.2,0.8,1.4c0.6,0.1,1.2-0.2,1.4-0.8
	C289.8,381.2,289.8,381,289.8,380.8L289.8,380.8z"/>
<path class="st14" d="M243.6,372l29.2-69.6l-4.7-1.9l-26.5,70.7c-0.4,0.5-0.3,1.2,0.2,1.6c0.5,0.4,1.2,0.3,1.6-0.2
	C243.5,372.4,243.5,372.2,243.6,372L243.6,372z"/>
<path class="st14" d="M333.7,372l-29.2-69.7l4.7-1.9l26.5,70.7c0.4,0.5,0.3,1.2-0.2,1.6c-0.5,0.4-1.2,0.3-1.6-0.2
	C333.9,372.4,333.8,372.2,333.7,372L333.7,372z"/>
<path class="st4" d="M253.3,267h-46.2l-9.1-28.7c-0.4-1.2,0.3-2.4,1.5-2.8c0.2-0.1,0.4-0.1,0.7-0.1h41.4c1,0,1.8,0.6,2.1,1.6
	L253.3,267z"/>
<path class="st49" d="M252.5,267h-44.2l-9-28.2c-0.3-1.2,0.3-2.4,1.5-2.7c0.2-0.1,0.4-0.1,0.6-0.1H241c1,0,1.8,0.6,2.1,1.5
	L252.5,267z"/>
<path class="st50" d="M224.8,241.3h-20.1c-0.3,0-0.5-0.2-0.5-0.5l0,0l0,0c0-0.3,0.2-0.5,0.5-0.5l0,0h20.1c0.3,0,0.5,0.2,0.5,0.5l0,0
	l0,0C225.4,241,225.1,241.3,224.8,241.3L224.8,241.3z"/>
<path class="st50" d="M227.9,243.8h-22.5c-0.3,0-0.5-0.2-0.5-0.6l0,0c0-0.3,0.2-0.5,0.5-0.5c0,0,0,0,0,0h22.5c0.3,0,0.5,0.2,0.5,0.5
	l0,0l0,0C228.4,243.5,228.2,243.8,227.9,243.8z"/>
<path class="st50" d="M225.9,246.3h-19.6c-0.3,0-0.5-0.2-0.5-0.5l0,0l0,0c0-0.3,0.2-0.5,0.5-0.5l0,0h19.6c0.3,0,0.5,0.2,0.5,0.5l0,0
	l0,0C226.4,246,226.1,246.3,225.9,246.3L225.9,246.3z"/>
<path class="st50" d="M222.6,248.8h-15.5c-0.3,0-0.5-0.2-0.5-0.5c0,0,0,0,0,0l0,0c0-0.3,0.2-0.5,0.5-0.5l0,0h15.5
	c0.3,0,0.5,0.2,0.5,0.5l0,0l0,0C223.1,248.6,222.9,248.8,222.6,248.8z"/>
<path class="st50" d="M230.4,251.3h-22.5c-0.3,0-0.5-0.3-0.5-0.6l0,0c0-0.3,0.2-0.5,0.5-0.5l0,0h22.5c0.3,0,0.5,0.2,0.5,0.5l0,0l0,0
	C230.9,251.1,230.7,251.3,230.4,251.3z"/>
<path class="st50" d="M228.3,253.8h-19.6c-0.3,0-0.5-0.3-0.5-0.6l0,0c0-0.3,0.2-0.5,0.5-0.5l0,0h19.6c0.3,0,0.5,0.2,0.5,0.5l0,0l0,0
	C228.8,253.6,228.6,253.8,228.3,253.8C228.3,253.8,228.3,253.8,228.3,253.8z"/>
<path class="st50" d="M232.8,258.9h-22.5c-0.3,0-0.5-0.2-0.5-0.5l0,0c0-0.3,0.2-0.5,0.5-0.5h22.5c0.3,0,0.5,0.3,0.5,0.5l0,0
	C233.3,258.6,233.1,258.9,232.8,258.9z"/>
<path class="st50" d="M233.6,261.4h-22.5c-0.3,0-0.5-0.2-0.5-0.5c0,0,0,0,0,0l0,0c0-0.3,0.2-0.5,0.5-0.5h22.5c0.3,0,0.5,0.2,0.5,0.5
	l0,0C234.1,261.1,233.9,261.4,233.6,261.4z"/>
<path class="st50" d="M245.5,261.4h-7.3c-0.7,0-1.3-0.4-1.5-1.1l-6-19.1c-0.2-0.8,0.2-1.7,1-1.9c0.1,0,0.3-0.1,0.4-0.1h7.2
	c0.7,0,1.3,0.4,1.5,1.1l6,19.1c0.2,0.8-0.2,1.7-1,1.9C245.8,261.3,245.6,261.4,245.5,261.4z"/>
<path class="st4" d="M257.2,269.1H207c-0.8,0-1.5-0.7-1.5-1.5l0,0c0-0.8,0.7-1.5,1.5-1.5h50.2c0.8,0,1.5,0.7,1.5,1.5l0,0
	C258.6,268.4,258,269.1,257.2,269.1z"/>
<path class="st26" d="M271.6,229.4c-0.5,0-0.9-0.2-1.1-0.6l-1.7-2.9c-0.2-0.3-0.2-0.7-0.1-1c0.1-0.3,0.3-0.6,0.6-0.8l4.6-2.5
	c0.6-0.3,1.4-0.1,1.7,0.5l1.6,2.9c0.3,0.6,0.1,1.4-0.5,1.7l-4.6,2.5C272.1,229.3,271.8,229.4,271.6,229.4z M274.6,222.1
	c-0.1,0-0.2,0-0.3,0.1l-4.7,2.4c-0.3,0.2-0.5,0.6-0.3,0.9c0,0,0,0,0,0l0,0l1.7,2.9c0.2,0.3,0.6,0.4,0.9,0.3l4.6-2.5
	c0.2-0.1,0.3-0.2,0.3-0.4c0.1-0.2,0-0.4-0.1-0.5l-1.6-2.9C275.1,222.2,274.9,222.1,274.6,222.1L274.6,222.1z"/>
<path class="st28" d="M252.6,259.8c-0.2,0.2-0.4,0.5-0.6,0.7c-1-0.8-2-1.4-3.1-2c-0.7-0.2-2.1,0.4-3,0.4s-0.9-0.4-0.9-0.4
	s-3.1,1.3-3.6,1.4s-0.8,0-0.5-0.9c0.2-0.3,0.4-0.5,0.6-0.8l0,0c1.2-1.3,2.6-2.5,4.1-3.5c1-0.5,2.4-1.2,3.5-0.8
	c1.7,0.9,3.3,1.9,4.8,3.1C253.7,258,253.3,259,252.6,259.8z"/>
<path class="st51" d="M253.3,257.2l-0.8,2.6c-0.2,0.2-0.4,0.5-0.6,0.7c-1-0.8-2-1.4-3.1-2c-0.7-0.2-2.1,0.4-3,0.4s-0.9-0.4-0.9-0.4
	s-3.1,1.3-3.6,1.4s-0.8,0-0.5-0.9c0.2-0.3,0.4-0.5,0.6-0.8c-0.3,0.4-0.6,0.7-0.4,1.2s3.6-1,6-2.5c0,0,0.2-0.1,0.3,0
	s-0.1,0.2-0.1,0.3c-0.4,0.4-2.5,0.6-2,1.2c0.6,0.9,2.7-0.8,3.8-0.4c0.9,0.4,1.8,0.8,2.6,1.4C251.6,259.5,252.3,257.5,253.3,257.2z"
	/>
<path class="st21" d="M251.6,260.5c0,0,11.9,10.4,20.9,11.5s24-15.9,24-15.9s-1-9-6.5-8s-13,14.5-16.3,15.1s-20-6.5-20-6.5
	c-0.4,0.4-0.8,0.8-1,1.3C252.3,258.7,251.9,259.6,251.6,260.5z"/>
<path class="st19" d="M292.3,209c-3.3-3.7-8.1-4.1-11.8-3.7c-4.9,0.5-9.1,3.9-10.6,8.6c-0.7,2.3-0.6,4.8,0.2,7
	c3,8.4,6.2,13.8,9.2,15.4c1.1,0.6,3.3,0.2,5.6-0.6c0.3-0.1,0.6,0,0.8,0.3l1,1.8l8.6-1.9c-0.7-1.6-1.3-3.2-1.7-4.9
	C294.8,229.4,298.2,215.8,292.3,209z"/>
<path class="st23" d="M274.9,221c1.1-0.1,2.1,0.5,2.5,1.5c0.7,1.7,1.8,4,2.7,4.8c0.3,0.2,0.7,0.2,0.9,0c0.3-0.1,0.5-0.4,0.4-0.7
	c-0.2-1.1-0.6-2.3-1-3.4c-0.5-1.1,0-2.5,1.2-3c0.2-0.1,0.3-0.1,0.5-0.2c0.5-0.1,0.9,0,1.4,0.1c2.5,0.8,0.8,4.8,0.7,6.8
	c0,1.5,1.7,4.9,2.5,5.2c3.1,1,6.4,0,8.5-2.4c2-2.5,2.5-11,1.4-16.1s-5.2-7.9-6.5-8.3c-0.5-0.1-1.1-0.2-1.6-0.1
	c-0.4,0-0.8-0.1-1.1-0.4c-1.3-1.2-5.4-3.9-11.8-1.1c-5.7,2.4-9.3,8-9.1,14.1c0.1,2.2,1.8,2,3,1.6c0.7-0.2,1.4,0,1.9,0.4
	C272.3,220.8,273.6,221.1,274.9,221z"/>
<path class="st20" d="M286.5,239.1c0,0-0.7-0.8-0.5-1.3c2.3-2.2,5.3-3.5,8.5-3.4c0.7,0,1.5,0,2.3,1.8c0.5,1,0.8,2,1,3L286.5,239.1z"
	/>
<path class="st20" d="M303.2,311.3l-0.9,0.2c-3.3,0.5-6.5,0.7-9.8,0.8c-12-0.2-18-11.4-20-14.7c-0.4-0.6-0.7-1.3-1-2
	c0.7-0.4,8.8-4.8,8.4-19.7c-0.1-3.1,0-10.1-1.6-12.8c-0.8-1.5-3.4-4.5-5-7.7c-1.3-2.6-2-5.3-0.5-7.4c2.4-3.3,5.5-6,9.1-7.9
	c0,0,10.2-4.1,18.9-3.2c5.5,0.6,10.4,3.2,11.7,10.1C315.9,265,303.2,311.3,303.2,311.3z"/>
<path class="st52" d="M283.3,272c1.5,14.7-8.6,24-10.8,25.6c-0.4-0.6-0.7-1.3-1-2c0.7-0.4,8.3-7,8.4-19.7c0-3.1,0-10.1-1.6-12.8
	c-0.9-1.5-3.4-4.5-5-7.7l0.7-0.3l4.1-0.7l2.1,1.7C281.7,261.4,282.8,266.7,283.3,272z"/>
<path class="st53" d="M303.2,311.3l-0.9,0.2c0.8-4,5.6-29.3,7.2-38.5c3.1-18.1-0.1-27.3-2-30.6c-1.5-2.7-4.3-4.1-6.7-5.5
	c5.5,0.6,10.4,3.2,11.7,10.1C315.9,265,303.2,311.3,303.2,311.3z"/>
<path class="st28" d="M244.4,365.4c-0.9,0.4-1.9,0.5-2.8,0.5c-1.8,0-2.3-0.7-2.3-0.7v-4l5.8-0.8L244.4,365.4z"/>
<path class="st14" d="M289.9,309.2c0,2.6-0.7,6.8-4.6,7.9c-5.8,1.8-10.1,0.8-16.9-0.4c-5.7-1-20.6-4.2-23.3-5.2
	c-0.2-0.1-0.5,0-0.6,0.3c0,0.1,0,0.2,0,0.3c1.3,6.3,2.3,9.1,3.2,18.5c0.7,8-2.4,30.5-2.4,30.5c-0.6,0.2-1.3,0.3-1.9,0.4
	c-0.4,0.1-0.7,0.1-1.1,0.1c-1.1,0-2.2-0.1-3.2-0.3c0,0-6-33.2-6.9-46.7s0.5-14.6,6.6-17.4s33.5-1.8,33.5-1.8l0,0
	c1.3,3.2,3.4,6,6.2,8.2C281.6,306.5,285.6,308.4,289.9,309.2z"/>
<path class="st54" d="M273.3,297.9c-0.4-0.7-0.8-1.5-1.1-2.3l0,0h-0.9C271.9,296.3,272.6,297.1,273.3,297.9z"/>
<path class="st48" d="M286.1,308.2c-0.5,2.2-2.1,4-4.2,4.6c-5.8,1.8-10.1,0.8-16.9-0.4c-5.7-1-20.6-4.2-23.3-5.2
	c-0.2-0.1-0.5,0-0.6,0.3c0,0.1,0,0.2,0,0.3c1.3,6.3,2.3,9.1,3.2,18.5c0.5,6.2,0.3,26.4,0.2,35.1c0.5-0.1,0.8-0.2,0.8-0.2
	s3.1-22.6,2.4-30.5c-0.8-9.5-1.9-12.2-3.2-18.5c-0.1-0.3,0.1-0.5,0.4-0.6c0.1,0,0.2,0,0.3,0c2.7,1,17.7,4.3,23.3,5.2
	c6.8,1.2,11.1,2.2,16.9,0.4c3.9-1.2,4.6-5.3,4.6-7.9C288.6,309,287.4,308.6,286.1,308.2z"/>
<path class="st26" d="M239.2,364.7c0.9,0.4,1.9,0.6,2.9,0.6c1,0,1.9-0.2,2.8-0.6c0,0,2.9,3.7,1.4,7.9c-0.1,0.2-0.3,0.4-0.5,0.4
	h-19.6c-0.2,0-0.4-0.2-0.5-0.4c0-0.8,0.6-1.5,1.4-1.6c1.8-0.5,3.7-0.9,5.1-1.4c1.4-0.5,3.4-2.5,4.5-2.9
	C237.7,366.2,238.5,365.5,239.2,364.7z"/>
<path class="st28" d="M230.3,266.6c0,0-1.7-0.5-2.6-0.6c-0.4-0.1-0.7-0.1-1-0.1c-0.4,0-0.8,0-1.1,0l-9.4,1.3c-0.3,0-0.5-0.2-0.6-0.4
	c-0.1-0.4,0.1-0.8,0.4-1l0.9-0.8l2.7-2.4c1.2-1,2.7-1.5,4.2-1.5c0.7,0.1,1.3,0.2,1.9,0.4c1.8,0.3,2.3,0.5,3.5,0.8
	c0.3,0.1,0.7,0.1,1,0.2c0.1,0,0.3,0,0.4,0C231,263.8,230.9,265.3,230.3,266.6z"/>
<path class="st55" d="M244.6,267.5C244.6,267.5,244.6,267.5,244.6,267.5c-0.3-0.1-1.8-0.7-2.6-1c-0.3-0.1-0.5-0.2-0.8-0.2
	c-0.4-0.1-0.8-0.1-1.3-0.1h-9.4c-0.3,0-0.5-0.2-0.5-0.5c0,0,0,0,0,0c0-0.4,0.2-0.7,0.5-0.9l1-0.7c-1,0.7-1.1,1.3-0.6,1.3
	c1.2-0.1,2.4-0.3,3.6-0.7c0.1,0,0.1,0.1,0,0.1c-0.3,0.1-0.4,0.4-0.3,0.7c0.1,0.3,0.4,0.4,0.7,0.3l2.4-0.1c1.3-0.1,2.7-0.2,4-0.1
	c0.7,0.1,1.4,0.4,2.1,0.7c0.4,0.2,0.8-0.3,0.9-0.7c0.2-0.7,0.5-1.4,0.8-2.1c0.1,0,0.3,0,0.4,0C245.6,264.9,245.3,266.3,244.6,267.5z
	"/>
<path class="st20" d="M281.5,245c-1.2-0.8-5-2.8-9.8,4.7s-8.7,13.2-10.4,14.2s-5.8,0.3-7.3,0.3s-23.4-1.7-23.4-1.7
	c-0.6,1.3-1,2.8-1.2,4.2c0,0,20.1,5.2,32.5,5.3s21.9-18.8,22.3-21S284.5,246.8,281.5,245z"/>
<path class="st26" d="M269.5,227.4c-0.1,0-0.2-0.1-0.3-0.1c-0.1-0.1,0-0.3,0.1-0.4l10.8-5.5c1.2-0.6,3.7-1.9,5.6,0.8
	c0.1,0.1,0,0.3-0.1,0.4c-0.1,0.1-0.3,0.1-0.4-0.1c0,0,0,0,0,0c-1.5-2.1-3.2-1.5-4.8-0.6l-10.8,5.5
	C269.6,227.4,269.6,227.4,269.5,227.4z"/>
<path class="st24" d="M280.4,222l1.3,4.2c0.5,0.5,1.3,0.5,1.9,0c0,0,0.1-0.1,0.1-0.2c1-1.1,1.8-5,0-5.7c-1.2-0.6-2.6,0-3.1,1.1
	C280.5,221.6,280.4,221.8,280.4,222z"/>
<path class="st17" d="M329.5,282.3c0-21-0.5-35.9-13.8-38.1c-18.1-3-32.3,12.7-29.4,42.7c1.7,17.2-5.4,23.1-11.4,26.5
	c-3.9,2.2-11.4,1.7-11.4,1.7s-3.5-0.4-5.8-0.6c1.5,0.7,32.5,16,54.6,4.7C331.8,309.2,329.5,294.7,329.5,282.3z"/>
<path class="st18" d="M329.5,282.3c0-21-0.5-35.9-13.8-38.1c-0.6-0.1-1.3-0.2-1.9-0.3c-14.5,1.4-24,16.7-21.5,43
	c1.7,17.2-5.4,23.1-11.4,26.5c-3.9,2.2-11.4,1.7-11.4,1.7l-0.5-0.1c-1.8,0.2-3.7,0.2-5.5,0.1c0,0-3.5-0.4-5.8-0.6
	c1.5,0.7,32.5,16,54.6,4.7C331.8,309.2,329.5,294.7,329.5,282.3z"/>
<path class="st56" d="M75.1,268.8c0,0,5.5,30.5,6.5,33.4c0,0-5.7,10.7,0,47.5c0,0-2.5-40.4,2.4-46.5L75.1,268.8z"/>
<path class="st57" d="M245.1,311.5"/>
</svg>
