<svg height="472pt" viewBox="0 -12 472 472" width="472pt" xmlns="http://www.w3.org/2000/svg"><path d="m136 112h208v256h-208zm0 0" fill="#78b9eb"/><path d="m344 144v224h-208v-16zm0 0" fill="#5aaae7"/><path d="m472 144v96h-160v-96zm0 0" fill="#ffde55"/><path d="m8 272v-96h160v96zm0 0" fill="#00ccb3"/><path d="m136 368h208v16c0 17.671875-14.328125 32-32 32h-144c-17.671875 0-32-14.328125-32-32zm0 0" fill="#acabb1"/><path d="m168 64h144c17.671875 0 32 14.328125 32 32v16h-208v-16c0-17.671875 14.328125-32 32-32zm0 0" fill="#acabb1"/><g fill="#787680"><path d="m216 384h48v16h-48zm0 0"/><path d="m176 80h16v16h-16zm0 0"/><path d="m208 80h32v16h-32zm0 0"/></g><path d="m56 48h-16v16h-16v16h16v16h16v-16h16v-16h-16zm0 0" fill="#ff9811"/><path d="m456 16h-16v-16h-16v16h-16v16h16v16h16v-16h16zm0 0" fill="#ee8700"/><path d="m408 400h-16v16h-16v16h16v16h16v-16h16v-16h-16zm0 0" fill="#ff9811"/><path d="m32 336h-16v16h-16v16h16v16h16v-16h16v-16h-16zm0 0" fill="#ee8700"/><path d="m240 328h-160c-4.417969 0-8-3.582031-8-8v-48h16v40h152zm0 0" fill="#ff5023"/><path d="m392 296h-128v-16h120v-40h16v48c0 4.417969-3.582031 8-8 8zm0 0" fill="#ff9811"/><path d="m32 200h16v16h-16zm0 0" fill="#00b39d"/><path d="m64 200h64v16h-64zm0 0" fill="#00b39d"/><path d="m48 232h64v16h-64zm0 0" fill="#00b39d"/><path d="m336 168h32v16h-32zm0 0" fill="#ffa733"/><path d="m384 168h64v16h-64zm0 0" fill="#ffa733"/><path d="m352 200h80v16h-80zm0 0" fill="#ffa733"/></svg>