<svg id="b6ebd32b-5e0d-40b9-a99b-1127d1ed818e" data-name="Layer 1" xmlns="http://www.w3.org/2000/svg" xmlns:xlink="http://www.w3.org/1999/xlink" viewBox="0 0 602.99 374.33"><defs><style>.f1a4d449-896d-4aef-b7ec-b0783e83a599{isolation:isolate;}.aa046734-871c-4191-926d-439dded866e8{fill:#f05425;}.a2fa8421-0b6a-4e0b-8f5b-dacd54ecd5e1{fill:url(#b1a04836-4614-4639-8cc8-3c5fc5f58b77);}.a949e9b1-3ef3-43a3-abaf-d7e78c099a17{fill:url(#e4fdd763-cad7-4d97-b689-8fc221242e88);}.bf325f62-a8b0-4193-90e2-700b2baf50d8{fill:url(#b6d596a6-b181-4423-92c1-71d4964f7899);}.fc24b73d-e1d7-4365-aa8b-2cbd911a7979{fill:url(#f8dd668f-b949-46ed-aa17-6fbab3e03ab7);}</style><linearGradient id="b1a04836-4614-4639-8cc8-3c5fc5f58b77" x1="356.5" y1="289.9" x2="356.5" y2="4.4" gradientTransform="matrix(1, 0, 0, -1, -133, 315)" gradientUnits="userSpaceOnUse"><stop offset="0" stop-color="#e93426"/><stop offset="0.11" stop-color="#e93827"/><stop offset="0.21" stop-color="#ea4327"/><stop offset="0.29" stop-color="#eb5428"/><stop offset="0.37" stop-color="#ed6929"/><stop offset="0.45" stop-color="#ef7f2c"/><stop offset="0.51" stop-color="#f2942f"/><stop offset="0.57" stop-color="#ef802c"/><stop offset="0.64" stop-color="#ed6929"/><stop offset="0.72" stop-color="#eb5528"/><stop offset="0.8" stop-color="#ea4427"/><stop offset="0.89" stop-color="#e93827"/><stop offset="1" stop-color="#e93426"/></linearGradient><linearGradient id="e4fdd763-cad7-4d97-b689-8fc221242e88" x1="-331.6" y1="290.5" x2="-331.6" y2="4.9" gradientTransform="translate(146.1 315) rotate(180)" gradientUnits="userSpaceOnUse"><stop offset="0" stop-color="#e93426"/><stop offset="0.11" stop-color="#e93827"/><stop offset="0.21" stop-color="#ea4327"/><stop offset="0.29" stop-color="#eb5428"/><stop offset="0.37" stop-color="#ed6929"/><stop offset="0.45" stop-color="#ef7f2c"/><stop offset="0.51" stop-color="#f2942f"/><stop offset="0.57" stop-color="#ef7f2c"/><stop offset="0.64" stop-color="#ed6929"/><stop offset="0.72" stop-color="#eb5428"/><stop offset="0.8" stop-color="#ea4327"/><stop offset="0.89" stop-color="#e93827"/><stop offset="1" stop-color="#e93426"/></linearGradient><linearGradient id="b6d596a6-b181-4423-92c1-71d4964f7899" x1="501.7" y1="290.6" x2="501.7" y2="147.2" gradientTransform="matrix(1, 0, 0, -1, -133, 315)" gradientUnits="userSpaceOnUse"><stop offset="0" stop-color="#0b223b"/><stop offset="1" stop-color="#2ba2c0"/></linearGradient><linearGradient id="f8dd668f-b949-46ed-aa17-6fbab3e03ab7" x1="258.3" y1="289.9" x2="258.3" y2="4.4" gradientTransform="matrix(1, 0, 0, -1, -133, 315)" gradientUnits="userSpaceOnUse"><stop offset="0" stop-color="#0b223b"/><stop offset="0.5" stop-color="#2da1db"/><stop offset="0.56" stop-color="#308cbb"/><stop offset="0.86" stop-color="#1a3d58"/><stop offset="1" stop-color="#0b223b"/></linearGradient></defs><title>cm-logo-with-name</title><image id="a148d816-8ec8-4aca-b192-2415e6ad6ac6" data-name="Rectangle 1 Image" class="f1a4d449-896d-4aef-b7ec-b0783e83a599" width="1242" height="742" transform="translate(0) scale(0.49 0.49)" xlink:href="../Downloads/3C3442CB.png"/><g class="f1a4d449-896d-4aef-b7ec-b0783e83a599"><path class="aa046734-871c-4191-926d-439dded866e8" d="M240.12,460.45c0,.45,0,.83,0,1.14a6.45,6.45,0,0,1-.12.81,2.19,2.19,0,0,1-.21.58,3.36,3.36,0,0,1-.43.55,5.65,5.65,0,0,1-1.15.79,14,14,0,0,1-2.06.93,19.29,19.29,0,0,1-12.64-.07,12.89,12.89,0,0,1-4.89-3.29,14.63,14.63,0,0,1-3.08-5.47,24.33,24.33,0,0,1-1.08-7.62,24.07,24.07,0,0,1,1.18-7.87,16.41,16.41,0,0,1,3.31-5.78,13.91,13.91,0,0,1,5.09-3.54,17,17,0,0,1,6.53-1.21,15.94,15.94,0,0,1,2.8.24,16.94,16.94,0,0,1,2.48.63,12.64,12.64,0,0,1,2.06.9,5.93,5.93,0,0,1,1.27.88,3.12,3.12,0,0,1,.5.6,2.14,2.14,0,0,1,.21.62,5.06,5.06,0,0,1,.12.88c0,.34,0,.77,0,1.27a13.7,13.7,0,0,1,0,1.37,3.69,3.69,0,0,1-.19.91,1.24,1.24,0,0,1-.32.51.62.62,0,0,1-.43.16,1.87,1.87,0,0,1-1-.47,17.21,17.21,0,0,0-1.6-1,13.07,13.07,0,0,0-2.33-1,9.8,9.8,0,0,0-3.24-.47,7.63,7.63,0,0,0-6.46,3.26,11.27,11.27,0,0,0-1.73,3.8,22.13,22.13,0,0,0,0,10.32,10.23,10.23,0,0,0,1.8,3.7,7.32,7.32,0,0,0,2.82,2.16,9.38,9.38,0,0,0,3.72.71,10.83,10.83,0,0,0,3.25-.44,14.23,14.23,0,0,0,2.35-1c.65-.36,1.19-.68,1.61-1a2,2,0,0,1,1-.43.78.78,0,0,1,.43.11.76.76,0,0,1,.27.43,4.48,4.48,0,0,1,.16.9C240.1,459.29,240.12,459.81,240.12,460.45Z" transform="translate(-87 -92)"/><path class="aa046734-871c-4191-926d-439dded866e8" d="M273,452.58a18.23,18.23,0,0,1-.81,5.59,11.75,11.75,0,0,1-2.44,4.35,10.78,10.78,0,0,1-4.11,2.82,15.46,15.46,0,0,1-5.77,1,15.83,15.83,0,0,1-5.56-.88,9.88,9.88,0,0,1-3.92-2.58,10.61,10.61,0,0,1-2.31-4.16,19.44,19.44,0,0,1-.76-5.64,18.34,18.34,0,0,1,.82-5.6,11.91,11.91,0,0,1,2.46-4.35,10.91,10.91,0,0,1,4.1-2.81,15.3,15.3,0,0,1,5.76-1,16.11,16.11,0,0,1,5.58.87,9.8,9.8,0,0,1,3.91,2.56,10.69,10.69,0,0,1,2.3,4.17A19.45,19.45,0,0,1,273,452.58Zm-7,.27a17.37,17.37,0,0,0-.28-3.26,7.87,7.87,0,0,0-.95-2.59,4.76,4.76,0,0,0-1.79-1.72,5.74,5.74,0,0,0-2.8-.62,5.93,5.93,0,0,0-2.64.55,4.78,4.78,0,0,0-1.85,1.61,7.8,7.8,0,0,0-1.09,2.55,14.6,14.6,0,0,0-.36,3.4,16.51,16.51,0,0,0,.3,3.26,7.93,7.93,0,0,0,.95,2.6,4.55,4.55,0,0,0,1.78,1.7,6.67,6.67,0,0,0,5.46.05,4.65,4.65,0,0,0,1.85-1.59,7.43,7.43,0,0,0,1.07-2.54A14.57,14.57,0,0,0,266,452.85Z" transform="translate(-87 -92)"/><path class="aa046734-871c-4191-926d-439dded866e8" d="M305,464.8a.87.87,0,0,1-.13.5,1,1,0,0,1-.46.34,3.2,3.2,0,0,1-.87.18,15.78,15.78,0,0,1-2.75,0,3.56,3.56,0,0,1-.88-.18,1.14,1.14,0,0,1-.48-.34.8.8,0,0,1-.15-.5v-2.66a15.15,15.15,0,0,1-3.88,3.09,9.2,9.2,0,0,1-4.5,1.1,9.32,9.32,0,0,1-4.63-1.06,8.83,8.83,0,0,1-3.09-2.86,12.6,12.6,0,0,1-1.73-4.2,23,23,0,0,1-.54-5.06,22.05,22.05,0,0,1,.69-5.75,12.83,12.83,0,0,1,2-4.35,8.94,8.94,0,0,1,3.28-2.77,10.11,10.11,0,0,1,4.51-1,8,8,0,0,1,3.65.82,12.86,12.86,0,0,1,3.25,2.4v-13a.86.86,0,0,1,.15-.49,1.07,1.07,0,0,1,.53-.36,4.94,4.94,0,0,1,1-.23,16.75,16.75,0,0,1,3.27,0,4.58,4.58,0,0,1,1,.23,1.27,1.27,0,0,1,.54.36.8.8,0,0,1,.16.49Zm-6.71-16a15,15,0,0,0-2.78-2.8,4.68,4.68,0,0,0-2.78-1,3.89,3.89,0,0,0-2.27.66,4.65,4.65,0,0,0-1.53,1.75,9.41,9.41,0,0,0-.86,2.46,13.52,13.52,0,0,0-.28,2.78,17.64,17.64,0,0,0,.24,2.93,9.45,9.45,0,0,0,.79,2.54,4.87,4.87,0,0,0,1.47,1.78,3.74,3.74,0,0,0,2.31.67,4.42,4.42,0,0,0,1.35-.2,4.76,4.76,0,0,0,1.34-.66,8.58,8.58,0,0,0,1.41-1.19,22.65,22.65,0,0,0,1.59-1.81Z" transform="translate(-87 -92)"/><path class="aa046734-871c-4191-926d-439dded866e8" d="M337.89,452.13a2.57,2.57,0,0,1-.56,1.82,1.93,1.93,0,0,1-1.51.59H321.24a10,10,0,0,0,.36,2.78,5.29,5.29,0,0,0,1.15,2.13,5,5,0,0,0,2,1.32,8.64,8.64,0,0,0,3,.46,16.8,16.8,0,0,0,3.11-.25,19.92,19.92,0,0,0,2.33-.57c.65-.2,1.19-.39,1.62-.56a3,3,0,0,1,1-.26.72.72,0,0,1,.4.1.66.66,0,0,1,.27.33,2.38,2.38,0,0,1,.15.69c0,.29,0,.66,0,1.11s0,.73,0,1a5.87,5.87,0,0,1-.08.71,2,2,0,0,1-.16.5,2.37,2.37,0,0,1-.28.39,3.68,3.68,0,0,1-1,.51,16.81,16.81,0,0,1-2,.63c-.81.2-1.73.38-2.77.54a23.37,23.37,0,0,1-3.33.22,17.55,17.55,0,0,1-5.6-.8,9.9,9.9,0,0,1-4-2.45,10.13,10.13,0,0,1-2.41-4.13,19.42,19.42,0,0,1-.79-5.86,18.76,18.76,0,0,1,.83-5.76,12.09,12.09,0,0,1,2.42-4.35,10.35,10.35,0,0,1,3.85-2.72,13.23,13.23,0,0,1,5.12-.94,13.41,13.41,0,0,1,5.14.88,9.27,9.27,0,0,1,3.51,2.46,10,10,0,0,1,2,3.72,16.17,16.17,0,0,1,.65,4.67Zm-6.56-1.94a6.9,6.9,0,0,0-1.14-4.47,4.41,4.41,0,0,0-3.77-1.62,4.9,4.9,0,0,0-2.24.48,4.6,4.6,0,0,0-1.59,1.3,5.87,5.87,0,0,0-1,1.94,9,9,0,0,0-.39,2.37Z" transform="translate(-87 -92)"/><path class="aa046734-871c-4191-926d-439dded866e8" d="M388.31,464.75a.81.81,0,0,1-.15.48,1,1,0,0,1-.54.35,5.64,5.64,0,0,1-1,.22,14.55,14.55,0,0,1-1.64.08,14.1,14.1,0,0,1-1.61-.08,5.33,5.33,0,0,1-1-.22,1.1,1.1,0,0,1-.54-.35.75.75,0,0,1-.16-.48V436.47h-.06l-10.07,28.25a1.24,1.24,0,0,1-.34.58,1.89,1.89,0,0,1-.66.36,4.55,4.55,0,0,1-1.06.18c-.43,0-.95,0-1.56,0s-1.13,0-1.56-.07a4.89,4.89,0,0,1-1.06-.22,1.72,1.72,0,0,1-.66-.36,1,1,0,0,1-.32-.51l-9.72-28.25h-.06v28.28a.8.8,0,0,1-.14.48,1,1,0,0,1-.55.35,6.19,6.19,0,0,1-1,.22,16.34,16.34,0,0,1-3.23,0,5.77,5.77,0,0,1-1-.22,1,1,0,0,1-.53-.35.81.81,0,0,1-.15-.48v-31a2.84,2.84,0,0,1,.72-2.09,2.65,2.65,0,0,1,1.94-.73h4.62a9.32,9.32,0,0,1,2.12.21,3.94,3.94,0,0,1,1.53.67,3.67,3.67,0,0,1,1.07,1.23,8.35,8.35,0,0,1,.75,1.9l7.52,20.7h.11L376,435a11.49,11.49,0,0,1,.76-1.91,4.39,4.39,0,0,1,1-1.26,3.18,3.18,0,0,1,1.3-.68,6.56,6.56,0,0,1,1.75-.21h4.75a3.82,3.82,0,0,1,1.25.19,2.16,2.16,0,0,1,.86.55,2.59,2.59,0,0,1,.51.89,3.67,3.67,0,0,1,.18,1.19Z" transform="translate(-87 -92)"/><path class="aa046734-871c-4191-926d-439dded866e8" d="M419.85,464.88a.71.71,0,0,1-.27.59,1.74,1.74,0,0,1-.85.31,10.3,10.3,0,0,1-1.7.1,10.49,10.49,0,0,1-1.76-.1,1.42,1.42,0,0,1-.78-.31.78.78,0,0,1-.23-.59V463a11,11,0,0,1-3.37,2.47,9.78,9.78,0,0,1-4.2.88,11.87,11.87,0,0,1-3.51-.49,8,8,0,0,1-2.76-1.48,6.6,6.6,0,0,1-1.82-2.43,8.29,8.29,0,0,1-.64-3.38,7.61,7.61,0,0,1,.82-3.64,6.61,6.61,0,0,1,2.44-2.55,12.21,12.21,0,0,1,4-1.5,29.22,29.22,0,0,1,5.62-.48h2.33v-1.45a7.7,7.7,0,0,0-.22-2,3.31,3.31,0,0,0-.76-1.41,3.08,3.08,0,0,0-1.39-.84,7.91,7.91,0,0,0-2.17-.26,11.2,11.2,0,0,0-3,.37,16.75,16.75,0,0,0-2.35.84c-.68.3-1.25.58-1.7.83a2.5,2.5,0,0,1-1.12.37.78.78,0,0,1-.52-.19,1.37,1.37,0,0,1-.38-.53,4,4,0,0,1-.22-.86,6.6,6.6,0,0,1-.08-1.13,5.22,5.22,0,0,1,.13-1.32,2,2,0,0,1,.51-.87,5.15,5.15,0,0,1,1.32-.86,15.76,15.76,0,0,1,2.2-.87,20.16,20.16,0,0,1,2.75-.66,20.44,20.44,0,0,1,7.9.3,8.08,8.08,0,0,1,3.29,1.69,6.61,6.61,0,0,1,1.88,2.94,13.85,13.85,0,0,1,.59,4.27Zm-6.64-10.26h-2.58a13.86,13.86,0,0,0-2.79.25,5.43,5.43,0,0,0-1.88.72,3,3,0,0,0-1.06,1.17,3.58,3.58,0,0,0-.33,1.57,3,3,0,0,0,.95,2.36,3.77,3.77,0,0,0,2.64.86,5,5,0,0,0,2.62-.72,10.89,10.89,0,0,0,2.43-2.12Z" transform="translate(-87 -92)"/><path class="aa046734-871c-4191-926d-439dded866e8" d="M448.67,461c0,.47,0,.85,0,1.17a6.48,6.48,0,0,1-.1.79,2.71,2.71,0,0,1-.16.52,2,2,0,0,1-.42.51,6,6,0,0,1-1.1.76,12.19,12.19,0,0,1-1.77.79,14.61,14.61,0,0,1-2.17.56,12.68,12.68,0,0,1-2.4.22,13.1,13.1,0,0,1-4.9-.86,9.33,9.33,0,0,1-3.59-2.54,11.42,11.42,0,0,1-2.19-4.1,19,19,0,0,1-.73-5.53,19.21,19.21,0,0,1,.9-6.22,11.77,11.77,0,0,1,2.51-4.33,9.85,9.85,0,0,1,3.81-2.55,13.48,13.48,0,0,1,4.84-.84,12.24,12.24,0,0,1,2.1.19,13.39,13.39,0,0,1,1.94.51,11,11,0,0,1,1.61.73,5.11,5.11,0,0,1,1,.7,2.92,2.92,0,0,1,.41.49,1.64,1.64,0,0,1,.19.53c0,.21.08.47.11.79s0,.69,0,1.14a6.17,6.17,0,0,1-.27,2.19c-.18.42-.41.63-.7.63a1.69,1.69,0,0,1-1-.38c-.34-.25-.74-.53-1.21-.83a9.16,9.16,0,0,0-1.66-.83,6.35,6.35,0,0,0-2.31-.38,4.6,4.6,0,0,0-4,2A10.48,10.48,0,0,0,436,452.8a14.54,14.54,0,0,0,.35,3.41,7.16,7.16,0,0,0,1,2.47,4.39,4.39,0,0,0,1.72,1.49,5.5,5.5,0,0,0,2.4.5,6.21,6.21,0,0,0,2.4-.42,9.63,9.63,0,0,0,1.76-.93c.5-.34.93-.64,1.27-.92a1.47,1.47,0,0,1,.86-.42.61.61,0,0,1,.4.14.9.9,0,0,1,.25.49,5.64,5.64,0,0,1,.15.93C448.66,459.92,448.67,460.4,448.67,461Z" transform="translate(-87 -92)"/><path class="aa046734-871c-4191-926d-439dded866e8" d="M480.4,464.8a.71.71,0,0,1-.16.47,1.13,1.13,0,0,1-.53.34,5,5,0,0,1-1,.2c-.44,0-1,.07-1.62.07s-1.22,0-1.66-.07a4.93,4.93,0,0,1-1-.2,1.17,1.17,0,0,1-.54-.34.76.76,0,0,1-.16-.47V451.13a11.65,11.65,0,0,0-.25-2.74,5.4,5.4,0,0,0-.74-1.7,3.23,3.23,0,0,0-1.25-1.1,3.9,3.9,0,0,0-1.79-.39,4.47,4.47,0,0,0-2.6.94,13.84,13.84,0,0,0-2.74,2.74V464.8a.71.71,0,0,1-.16.47,1.16,1.16,0,0,1-.55.34,5.18,5.18,0,0,1-1,.2c-.42,0-1,.07-1.63.07s-1.21,0-1.64-.07a5.18,5.18,0,0,1-1-.2,1.16,1.16,0,0,1-.55-.34.76.76,0,0,1-.16-.47V429.49a.87.87,0,0,1,.16-.49,1.25,1.25,0,0,1,.55-.36,4.94,4.94,0,0,1,1-.23,14.42,14.42,0,0,1,1.64-.08,14.23,14.23,0,0,1,1.63.08,4.94,4.94,0,0,1,1,.23,1.25,1.25,0,0,1,.55.36.8.8,0,0,1,.16.49v13.24a12.93,12.93,0,0,1,3.56-2.57,8.86,8.86,0,0,1,3.77-.84,9.4,9.4,0,0,1,4.12.8,7.15,7.15,0,0,1,2.72,2.21,9,9,0,0,1,1.49,3.26,19.53,19.53,0,0,1,.45,4.52Z" transform="translate(-87 -92)"/><path class="aa046734-871c-4191-926d-439dded866e8" d="M498.27,432.74a3.77,3.77,0,0,1-.83,2.82,6.55,6.55,0,0,1-6.16,0,3.66,3.66,0,0,1-.79-2.71,3.86,3.86,0,0,1,.82-2.83,6.51,6.51,0,0,1,6.16,0A3.68,3.68,0,0,1,498.27,432.74Zm-.51,32.06a.71.71,0,0,1-.16.47,1.11,1.11,0,0,1-.55.34,5.07,5.07,0,0,1-1,.2c-.43,0-1,.07-1.64.07s-1.21,0-1.64-.07a5.07,5.07,0,0,1-1-.2,1.16,1.16,0,0,1-.55-.34.71.71,0,0,1-.16-.47V440.9a.72.72,0,0,1,.16-.47,1.34,1.34,0,0,1,.55-.35,4.83,4.83,0,0,1,1-.23,16.85,16.85,0,0,1,3.28,0,4.83,4.83,0,0,1,1,.23,1.27,1.27,0,0,1,.55.35.72.72,0,0,1,.16.47Z" transform="translate(-87 -92)"/><path class="aa046734-871c-4191-926d-439dded866e8" d="M531.35,464.8a.71.71,0,0,1-.17.47,1.08,1.08,0,0,1-.53.34,4.91,4.91,0,0,1-1,.2c-.44,0-1,.07-1.62.07s-1.21,0-1.65-.07a4.91,4.91,0,0,1-1-.2,1.08,1.08,0,0,1-.53-.34.71.71,0,0,1-.16-.47V451.13a11.56,11.56,0,0,0-.26-2.74,5.4,5.4,0,0,0-.74-1.7,3.23,3.23,0,0,0-1.25-1.1,3.86,3.86,0,0,0-1.78-.39,4.47,4.47,0,0,0-2.61.94,13.84,13.84,0,0,0-2.74,2.74V464.8a.71.71,0,0,1-.16.47,1.16,1.16,0,0,1-.55.34,5.07,5.07,0,0,1-1,.2c-.43,0-1,.07-1.64.07s-1.21,0-1.64-.07a5.07,5.07,0,0,1-1-.2,1.11,1.11,0,0,1-.55-.34.71.71,0,0,1-.17-.47V440.85a.82.82,0,0,1,.14-.47,1,1,0,0,1,.48-.34,4.33,4.33,0,0,1,.9-.2,12.92,12.92,0,0,1,1.39-.07,13.54,13.54,0,0,1,1.42.07,3.3,3.3,0,0,1,.87.2.93.93,0,0,1,.44.34.82.82,0,0,1,.14.47v2.76a15.23,15.23,0,0,1,4-3.22,9.08,9.08,0,0,1,4.28-1.07,9.48,9.48,0,0,1,4.13.8,7.26,7.26,0,0,1,2.71,2.19,8.93,8.93,0,0,1,1.49,3.24,19,19,0,0,1,.46,4.45Z" transform="translate(-87 -92)"/><path class="aa046734-871c-4191-926d-439dded866e8" d="M564.07,452.13a2.62,2.62,0,0,1-.55,1.82,2,2,0,0,1-1.52.59H547.42a10,10,0,0,0,.36,2.78,5.31,5.31,0,0,0,1.16,2.13,4.88,4.88,0,0,0,2,1.32,8.58,8.58,0,0,0,3,.46,17,17,0,0,0,3.12-.25,20.23,20.23,0,0,0,2.32-.57c.65-.2,1.19-.39,1.62-.56a3,3,0,0,1,1.05-.26.7.7,0,0,1,.4.1.66.66,0,0,1,.27.33,2.38,2.38,0,0,1,.15.69c0,.29,0,.66,0,1.11s0,.73,0,1a4.37,4.37,0,0,1-.08.71,1.63,1.63,0,0,1-.16.5,1.9,1.9,0,0,1-.28.39,3.56,3.56,0,0,1-.95.51,17,17,0,0,1-2,.63c-.81.2-1.73.38-2.77.54a23.37,23.37,0,0,1-3.33.22,17.6,17.6,0,0,1-5.6-.8,9.9,9.9,0,0,1-4-2.45,10.13,10.13,0,0,1-2.41-4.13,19.74,19.74,0,0,1-.79-5.86,18.45,18.45,0,0,1,.84-5.76,12.08,12.08,0,0,1,2.41-4.35,10.31,10.31,0,0,1,3.86-2.72,13.15,13.15,0,0,1,5.11-.94,13.46,13.46,0,0,1,5.15.88,9.23,9.23,0,0,1,3.5,2.46,10,10,0,0,1,2,3.72,16.17,16.17,0,0,1,.65,4.67Zm-6.55-1.94a7,7,0,0,0-1.15-4.47,4.41,4.41,0,0,0-3.77-1.62,4.9,4.9,0,0,0-2.24.48,4.6,4.6,0,0,0-1.59,1.3,5.87,5.87,0,0,0-1,1.94,9,9,0,0,0-.39,2.37Z" transform="translate(-87 -92)"/></g><g id="be084388-dd40-4fdc-916f-44fd280d827a" data-name="Layer 1"><polygon class="a2fa8421-0b6a-4e0b-8f5b-dacd54ecd5e1" points="139.9 167.8 228.9 310.6 307.1 310.6 216.6 167.8 305.8 25.2 228.9 25.1 139.9 167.8"/><polygon class="a949e9b1-3ef3-43a3-abaf-d7e78c099a17" points="561.3 167.2 472.3 310.1 394.1 310.1 484.6 167.2 395.5 24.7 472.3 24.5 561.3 167.2"/><polygon class="bf325f62-a8b0-4193-90e2-700b2baf50d8" points="304.6 24.6 350.5 103.4 396.2 24.6 473.1 24.4 387.3 167.8 312.2 167.8 264.3 89.3 304.6 24.6"/><polygon class="fc24b73d-e1d7-4365-aa8b-2cbd911a7979" points="41.7 167.8 130.7 310.6 208.9 310.6 118.4 167.8 207.6 25.2 130.7 25.1 41.7 167.8"/></g></svg>