<svg id="a19dfe34-7386-4061-8bc9-426a552c85b8" data-name="Layer 1" xmlns="http://www.w3.org/2000/svg" viewBox="0 0 311.28 378.95"><defs><style>.bd69f75d-5ccc-4ef4-b038-72299141842a{fill:#f05423;}.f5e67192-6341-49b8-bdc9-6eac7e4862d9{fill:#fefefe;}</style></defs><title>Asset 3</title><path class="bd69f75d-5ccc-4ef4-b038-72299141842a" d="M392.19,232.64c0,74.09-50.44,138.05-123.44,152.66-61.47,12.3-113.56-6.61-153.67-55.25-25.95-31.48-36.85-68.44-33.61-108.92,3.81-47.62,25.61-85.8,64.08-114.26a149.16,149.16,0,0,1,52.55-24.6c1.49-.38,3.46-1.67,4.65-.2,1,1.26-.74,2.69-1.19,4.07-4.73,14.51-14,23.38-28.12,30.69-40.25,20.9-63,55.61-68.8,100.41-4.75,36.67,5.78,69.57,28.07,99.15,8.14,10.8,16,13.78,29.95,10.88,45.08-9.39,89.06-3.56,131.19,15.2,11.38,5.07,11.41,5.33,21.09-2,20.57-15.6,36-34.93,45.42-59.35,6-15.5,9.36-31.34,9.32-47.64a133.21,133.21,0,0,0-81-122.62c-3.17-1.33-3.84-3-3.05-6.11,1.09-4.35,1.83-8.79,2.62-13.21.66-3.67,1.91-4.93,6-3.25,35.24,14.51,62,38.48,80,72C386.76,183.7,392.19,206.85,392.19,232.64Z" transform="translate(-80.91 -10)"/><path class="bd69f75d-5ccc-4ef4-b038-72299141842a" d="M259.27,10.5q-5.52,24.29-11,48.58c-1.51,6.65-3,13.3-4.64,19.92-.73,2.91-.35,4.36,3.17,4.08,7-.54,14-.67,20.92-1.23,3.81-.3,4.48.85,3.63,4.52-4,17.17-7.54,34.43-11.57,51.59-1,4.38-.44,6.48,4.41,6.74,2.79.15,5.52,1.33,8.31,1.53,5.51.39,6.73,3.47,5.32,8.07-1.29,4.19.24,5.72,4.31,6.71,18.69,4.54,36.28,12,53.43,20.59,3.49,1.76,3.86,3.87,3.48,7.09-1.32,11.23-2.43,22.49-3.83,33.71-.51,4.1.77,5.51,5,5.68,10.73.43,10.79.64,9.78,11.17-.86,8.95-2,17.86-2.81,26.81-.27,2.92-1.33,4.34-4.36,3.82h-.5c-3.92-.21-8.84-2.79-11.43,0-2.12,2.26-1.42,7.22-1.87,11-.66,5.62-1.38,11.23-1.77,16.87-.19,2.75-1.14,3.93-3.94,4.7-31,8.5-62.32,11.5-94.37,8.06a252.24,252.24,0,0,1-91.49-27.9c-3-1.61-3.35-3.35-2.95-6.34,1.08-8.08,1.72-16.21,2.7-24.3.39-3.23-.78-4.39-4-4.74-11.79-1.31-11.71-1.4-10.33-13.69.89-7.93,1.68-15.88,2.26-23.84.26-3.64,1.54-4.85,5.31-4.37,12.85,1.63,11.49,3.9,12.89-10.89.89-9.44,2.06-18.85,2.89-28.3.28-3.22,2.6-3.54,4.77-4.15a230.27,230.27,0,0,1,56.52-8.86c4.18-.11,5.44-1.55,5.65-5.47.37-6.76.57-6.75,7.62-6.75,11.3,0,11.29,0,14.94-10.95,2.48-7.42,4.94-14.84,7.5-22.23,1.13-3.25.64-4.48-3.24-4.11-7.62.73-15.29.84-22.92,1.43-3.62.28-4-.69-2.48-3.81C223.36,83.14,232,65,240.69,46.83Q249.5,28.37,258.35,10Z" transform="translate(-80.91 -10)"/><path class="f5e67192-6341-49b8-bdc9-6eac7e4862d9" d="M255.79,284.44c-31.19.53-60.19-5.95-88.21-17.49-3.69-1.52-4.46-3.33-4-7.12q4-35.2,7.51-70.47c.33-3.32,1.2-4.84,4.78-5.5a229.26,229.26,0,0,1,70-2.24,223.31,223.31,0,0,1,60.46,16.31c2.66,1.13,4,2.3,3.64,5.46-2.68,24-5.3,47.93-7.71,71.93-.35,3.55-1.8,4.71-5.09,5.36A194.17,194.17,0,0,1,255.79,284.44Z" transform="translate(-80.91 -10)"/><path class="bd69f75d-5ccc-4ef4-b038-72299141842a" d="M207.93,211.76a13.26,13.26,0,0,1,11.28,5.43c2.16,2.72,4.73,5.13,6.78,7.93,3.17,4.33,2.58,8.89-1.2,11.95-3.59,2.9-7.9,2.47-11.57-1.2-2.08-2.09-3.86-5.55-6.22-6s-4.79,3-7.23,4.65a8.5,8.5,0,0,1-11.88-1.76l-.06-.09a7.66,7.66,0,0,1,1-10.78,3.57,3.57,0,0,1,.38-.3C194.69,217.28,199.47,211.38,207.93,211.76Z" transform="translate(-80.91 -10)"/><path class="bd69f75d-5ccc-4ef4-b038-72299141842a" d="M267.26,218a11.91,11.91,0,0,1,9.74,4.2c2.84,3.24,5.89,6.34,8.48,9.77a8.13,8.13,0,0,1-1.11,11.24c-3.27,2.86-7.76,2.72-11.27-.5-2.31-2.12-4.13-5.53-6.79-6.32-3-.9-5,3.25-7.72,4.69-4.33,2.25-9.18,1.52-11.68-2-2.63-3.68-2.13-8.41,2-11.47C254.29,223.56,258.83,217.56,267.26,218Z" transform="translate(-80.91 -10)"/></svg>