<svg id="ab613352-cf28-4802-b680-962aed5445a3" data-name="Layer 1" xmlns="http://www.w3.org/2000/svg" viewBox="0 0 522.84 443.71"><defs><style>.a027961b-6909-4a07-ae70-1c284ab6e5b2,.e57520c0-c44d-42f9-a212-91b0d8ed65a8{fill:#85bbce;}.a1f874ab-52ff-4859-85bf-5842f4cd7863,.e57520c0-c44d-42f9-a212-91b0d8ed65a8{opacity:0.5;isolation:isolate;}.bb8c2851-03e4-4856-aaa4-ddbcb9d3db5a{fill:#2ea3dc;}.a17e6f5b-69ff-47bb-b3fe-38b8bd709ad1,.a1f874ab-52ff-4859-85bf-5842f4cd7863,.b499aa7c-27d2-41fb-8d0f-dc95a466a8b2,.e3c303b8-9210-4ede-96e4-e4ca82480750{fill:none;}.a17e6f5b-69ff-47bb-b3fe-38b8bd709ad1{stroke:#85bbce;}.a17e6f5b-69ff-47bb-b3fe-38b8bd709ad1,.a1f874ab-52ff-4859-85bf-5842f4cd7863,.e3c303b8-9210-4ede-96e4-e4ca82480750{stroke-linecap:round;stroke-miterlimit:10;}.f6bdeaaa-2bf6-4c27-a888-a5a8d410aac6{fill:#f4f4f4;}.a018e507-6640-4515-92a0-9ec3ea7376b8{fill:#071a34;}.bd76d53b-297e-4615-8786-cd7f61659b60{fill:#f05424;}.b03d7648-5bfe-4aaf-a69f-a97405b419a2{fill:#f8f6f0;}.b591a09c-e5a8-4598-99af-0b7975ecb39a{fill:#8e584b;}.a1f874ab-52ff-4859-85bf-5842f4cd7863{stroke:#3c62ae;}.a1f874ab-52ff-4859-85bf-5842f4cd7863,.e3c303b8-9210-4ede-96e4-e4ca82480750{stroke-width:2px;}.abe19f58-5cbb-4c3b-83ee-2098e4cc3967{fill:#f26d5a;}.e3c303b8-9210-4ede-96e4-e4ca82480750{stroke:#4ab2cd;}</style></defs><title>team-123</title><path class="e57520c0-c44d-42f9-a212-91b0d8ed65a8" d="M152.67,128.89s64.77-49.29,124.5,4.5c63.33,57,58.09,83.67,101.59,60.72,54.88-29,179.89,87.68,134,104.29-57.09,20.68,12.75,84.71,1.66,203.83-5.5,59.07-57,35.94-95.54,12.78-16-9.63-35.25-11.7-47.24-5.48,0,0-70,35.12-146.72-16.29-47.52-31.86-115.4-8.82-140.75-5C39.27,495-.13,478.88-.13,467.85V127.15s104.71,47.62,152.8,1.74Z" transform="translate(0.13 -95.86)"/><path class="bb8c2851-03e4-4856-aaa4-ddbcb9d3db5a" d="M152.05,116.5s63.39-49.3,121.86,4.5c62,57,56.86,83.67,99.44,60.72C427.06,152.77,549.43,269.4,504.55,286c-55.88,20.69,12.49,84.72,1.63,203.84-5.38,59.06-55.78,35.94-93.52,12.78-15.7-9.63-34.5-11.71-46.23-5.48,0,0-68.57,35.12-143.62-16.3-46.52-31.85-113-8.82-137.78-5-44,6.78-82.55-9.36-82.55-20.38V114.75S105,162.38,152.05,116.5Z" transform="translate(0.13 -95.86)"/><path class="bb8c2851-03e4-4856-aaa4-ddbcb9d3db5a" d="M93.09,476.37" transform="translate(0.13 -95.86)"/><line class="a17e6f5b-69ff-47bb-b3fe-38b8bd709ad1" x1="170.97" y1="336.15" x2="225.3" y2="336.15"/><line class="a17e6f5b-69ff-47bb-b3fe-38b8bd709ad1" x1="360.29" y1="264.04" x2="406.41" y2="264.04"/><line class="a17e6f5b-69ff-47bb-b3fe-38b8bd709ad1" x1="391.33" y1="380.23" x2="461.76" y2="380.23"/><polygon class="f6bdeaaa-2bf6-4c27-a888-a5a8d410aac6" points="113.81 273.89 112.72 283.14 106.21 300.06 112.16 301.89 116.75 284.25 117.35 274.3 113.81 273.89"/><polygon class="a018e507-6640-4515-92a0-9ec3ea7376b8" points="99.89 318.62 102.8 348.05 101.83 373.93 111.86 373.93 112.4 372 105.52 371.08 109.19 348.17 112.5 319.68 99.89 318.62"/><polygon class="a018e507-6640-4515-92a0-9ec3ea7376b8" points="96.58 318.29 94.3 343.36 78.94 363.75 80.78 373.37 85.36 373.37 82.61 371.31 82.15 365.13 96.82 348.63 110.1 319.07 96.58 318.29"/><polygon class="bd76d53b-297e-4615-8786-cd7f61659b60" points="117.35 274.3 117.17 264.97 115.29 264.74 113.81 273.89 117.35 274.3"/><path class="bd76d53b-297e-4615-8786-cd7f61659b60" d="M99,383.08c-.69,3.4-.73,8.58,4.36,9.4a7.39,7.39,0,0,0,8.83-5.78c.74-3.38-.51-7.72-5.73-8.4C103,377.86,99.54,380.37,99,383.08Z" transform="translate(0.13 -95.86)"/><path class="a018e507-6640-4515-92a0-9ec3ea7376b8" d="M102.65,392.24c-3.64-1-5-4.48-4.49-8a7.12,7.12,0,0,1,8.29-5.92,3.93,3.93,0,0,1,.58.19,3.33,3.33,0,0,1-.11,1.49,5.9,5.9,0,0,1-3.76,3.58S102.1,391.14,102.65,392.24Z" transform="translate(0.13 -95.86)"/><path class="bd76d53b-297e-4615-8786-cd7f61659b60" d="M102.23,384.14a2.56,2.56,0,0,0-1.51.3c-1.47.8-1,3,.35,3.71a3.58,3.58,0,0,0,1.36.37,2,2,0,0,0,1.2-.18,1.46,1.46,0,0,0,.63-1,3,3,0,0,0-.05-1.19A2.76,2.76,0,0,0,102.23,384.14Z" transform="translate(0.13 -95.86)"/><path class="b03d7648-5bfe-4aaf-a69f-a97405b419a2" d="M107.8,382.09a1.88,1.88,0,1,0,.85-2.87A2.16,2.16,0,0,0,107.8,382.09Z" transform="translate(0.13 -95.86)"/><circle class="b591a09c-e5a8-4598-99af-0b7975ecb39a" cx="116.35" cy="263.69" r="2.11"/><path class="b03d7648-5bfe-4aaf-a69f-a97405b419a2" d="M124,373.7l-3.2,1.06a25.47,25.47,0,0,1-6.33,10l-6,5.82-7.37,5-5.48,20.32,17.14,1.62.57-22.4,6.36-7.95a25.5,25.5,0,0,0,5.16-11.26Z" transform="translate(0.13 -95.86)"/><path class="b03d7648-5bfe-4aaf-a69f-a97405b419a2" d="M132.15,323h-23.9a7.39,7.39,0,0,0-7.39,7.39v23.9a7.4,7.4,0,0,0,7.39,7.39h23.9a7.4,7.4,0,0,0,7.39-7.39v-23.9A7.39,7.39,0,0,0,132.15,323Z" transform="translate(0.13 -95.86)"/><path class="bd76d53b-297e-4615-8786-cd7f61659b60" d="M124.65,361a2.11,2.11,0,1,0,2.11-2.1A2.1,2.1,0,0,0,124.65,361Z" transform="translate(0.13 -95.86)"/><polygon class="bd76d53b-297e-4615-8786-cd7f61659b60" points="120.61 280.01 124.83 281.51 128.22 266.06 125.8 265.51 120.61 280.01"/><path class="bd76d53b-297e-4615-8786-cd7f61659b60" d="M129.57,337.53c0,5.41-9.81,19.79-9.81,19.79S110,342.94,110,337.53a9.81,9.81,0,1,1,19.62,0Z" transform="translate(0.13 -95.86)"/><path class="b03d7648-5bfe-4aaf-a69f-a97405b419a2" d="M124.46,336.71a4.7,4.7,0,1,1-4.7-4.7A4.69,4.69,0,0,1,124.46,336.71Z" transform="translate(0.13 -95.86)"/><path class="a1f874ab-52ff-4859-85bf-5842f4cd7863" d="M146.44,469.6" transform="translate(0.13 -95.86)"/><path class="a1f874ab-52ff-4859-85bf-5842f4cd7863" d="M70.55,469.6" transform="translate(0.13 -95.86)"/><path class="b03d7648-5bfe-4aaf-a69f-a97405b419a2" d="M306.67,180.06H222.81a8.58,8.58,0,0,0-8.57,8.58V389.16a8.58,8.58,0,0,0,8.57,8.58h83.86a8.58,8.58,0,0,0,8.57-8.58V188.64A8.58,8.58,0,0,0,306.67,180.06Z" transform="translate(0.13 -95.86)"/><path class="a018e507-6640-4515-92a0-9ec3ea7376b8" d="M306.67,180.06H222.81a8.58,8.58,0,0,0-8.57,8.58v8.69h101v-8.69A8.58,8.58,0,0,0,306.67,180.06Z" transform="translate(0.13 -95.86)"/><path class="a018e507-6640-4515-92a0-9ec3ea7376b8" d="M214.24,378.23v10.93a8.58,8.58,0,0,0,8.57,8.58h83.86a8.58,8.58,0,0,0,8.57-8.58V378.23Z" transform="translate(0.13 -95.86)"/><path class="bd76d53b-297e-4615-8786-cd7f61659b60" d="M299.38,203.24h-23.9a7.39,7.39,0,0,0-7.39,7.39v23.89a7.39,7.39,0,0,0,7.39,7.4h23.9a7.39,7.39,0,0,0,7.39-7.4V210.63A7.39,7.39,0,0,0,299.38,203.24Z" transform="translate(0.13 -95.86)"/><path class="bb8c2851-03e4-4856-aaa4-ddbcb9d3db5a" d="M299.38,320.58h-23.9a7.39,7.39,0,0,0-7.39,7.39v23.9a7.39,7.39,0,0,0,7.39,7.39h23.9a7.39,7.39,0,0,0,7.39-7.39V328A7.39,7.39,0,0,0,299.38,320.58Z" transform="translate(0.13 -95.86)"/><path class="bd76d53b-297e-4615-8786-cd7f61659b60" d="M253.7,320.58H229.81a7.39,7.39,0,0,0-7.4,7.39v23.9a7.39,7.39,0,0,0,7.4,7.39H253.7a7.39,7.39,0,0,0,7.39-7.39V328A7.39,7.39,0,0,0,253.7,320.58Z" transform="translate(0.13 -95.86)"/><line class="a17e6f5b-69ff-47bb-b3fe-38b8bd709ad1" x1="213.96" y1="302.86" x2="322.8" y2="302.86"/><rect class="a018e507-6640-4515-92a0-9ec3ea7376b8" x="348.1" y="325.58" width="1" height="80.87" transform="translate(-55.18 -33.74) rotate(-9.44)"/><rect class="a018e507-6640-4515-92a0-9ec3ea7376b8" x="323.77" y="325.59" width="1" height="80.87" transform="translate(-55.51 -37.73) rotate(-9.44)"/><rect class="a018e507-6640-4515-92a0-9ec3ea7376b8" x="320.58" y="246.71" width="24.56" height="1"/><rect class="a018e507-6640-4515-92a0-9ec3ea7376b8" x="322.32" y="257.37" width="24.56" height="1"/><rect class="a018e507-6640-4515-92a0-9ec3ea7376b8" x="324.06" y="268.02" width="24.56" height="1"/><rect class="a018e507-6640-4515-92a0-9ec3ea7376b8" x="325.79" y="278.67" width="24.56" height="1"/><rect class="a018e507-6640-4515-92a0-9ec3ea7376b8" x="327.53" y="289.32" width="24.56" height="1"/><rect class="a018e507-6640-4515-92a0-9ec3ea7376b8" x="329.27" y="299.96" width="24.56" height="1"/><rect class="a027961b-6909-4a07-ae70-1c284ab6e5b2" x="269.84" y="365.51" width="80.87" height="1" transform="translate(-101.33 516.53) rotate(-80.61)"/><rect class="a027961b-6909-4a07-ae70-1c284ab6e5b2" x="294.18" y="365.52" width="80.86" height="1" transform="translate(-81.06 540.42) rotate(-80.59)"/><rect class="a027961b-6909-4a07-ae70-1c284ab6e5b2" x="313.99" y="246.71" width="24.56" height="1"/><rect class="a027961b-6909-4a07-ae70-1c284ab6e5b2" x="312.25" y="257.37" width="24.56" height="1"/><rect class="a027961b-6909-4a07-ae70-1c284ab6e5b2" x="310.51" y="268.02" width="24.56" height="1"/><rect class="a027961b-6909-4a07-ae70-1c284ab6e5b2" x="308.77" y="278.67" width="24.57" height="1"/><rect class="a027961b-6909-4a07-ae70-1c284ab6e5b2" x="307.03" y="289.32" width="24.56" height="1"/><rect class="a027961b-6909-4a07-ae70-1c284ab6e5b2" x="305.29" y="299.96" width="24.56" height="1"/><rect class="a027961b-6909-4a07-ae70-1c284ab6e5b2" x="315.04" y="229.02" width="29.95" height="2.99"/><polygon class="b03d7648-5bfe-4aaf-a69f-a97405b419a2" points="371.15 215.56 368.22 185.4 364.45 153.14 367.38 152.73 374.08 183.31 384.56 184.14 395.45 153.14 398.38 153.56 390.42 186.66 390.84 214.73 371.15 215.56"/><path class="bd76d53b-297e-4615-8786-cd7f61659b60" d="M374.75,270.22c-.79,2.89.46,7.53,3.35,8.32s6.33-2.56,7.12-5.45a5.43,5.43,0,0,0-10.47-2.87Z" transform="translate(0.13 -95.86)"/><path class="a018e507-6640-4515-92a0-9ec3ea7376b8" d="M378.61,268.55a3,3,0,0,1-1.73-1.13.94.94,0,0,1-.06-.15,5.41,5.41,0,0,1,8.4,5.82,8.63,8.63,0,0,1-4.58,5.21,9.43,9.43,0,0,1,.33-1.73c.59-2.28,1.26-4.55,2-6.8A29,29,0,0,1,378.61,268.55Z" transform="translate(0.13 -95.86)"/><path class="abe19f58-5cbb-4c3b-83ee-2098e4cc3967" d="M382,273a1.43,1.43,0,0,1,1.37-.23.92.92,0,0,1,.28.19,1,1,0,0,1,.26.85,2.19,2.19,0,0,1-1.57,1.79,1.71,1.71,0,0,1-.71.08,1,1,0,0,1-.6-.35C380.52,274.57,381.43,273.38,382,273Z" transform="translate(0.13 -95.86)"/><polygon class="a018e507-6640-4515-92a0-9ec3ea7376b8" points="390.84 214.73 387.93 260.99 384.73 260.99 382.01 215.1 379.15 215.22 377.41 262.12 374.94 262.06 371.15 215.56 370.59 209.83 390.77 210.1 390.84 214.73"/><polygon class="a018e507-6640-4515-92a0-9ec3ea7376b8" points="387.93 260.99 394.97 261.76 394.71 262.85 384.41 262.85 384.73 260.99 387.93 260.99"/><polygon class="a018e507-6640-4515-92a0-9ec3ea7376b8" points="377.41 262.12 377.41 263.44 367.74 263.8 367.74 262.59 374.94 262.06 377.41 262.12"/><path class="a018e507-6640-4515-92a0-9ec3ea7376b8" d="M379.94,274.14c-1.77.19-3.16-1.58-4.92-1.81a.61.61,0,0,0-.33,0,.71.71,0,0,0-.27.32l-.67,1.31a5.71,5.71,0,0,0-.56,1.38,5.08,5.08,0,0,0,.06,1.78,4.85,4.85,0,0,0,.38,1.35,3.41,3.41,0,0,0,1.89,1.61,5.71,5.71,0,0,0,2.5.25,4.51,4.51,0,0,0,1.66-.41,3.12,3.12,0,0,0,1.64-3.19,4.22,4.22,0,0,1-.11-.93,2.28,2.28,0,0,1,.34-.86c.18-.3,1.34-1.82.43-1.83-.28,0-.68.47-.92.61A2.83,2.83,0,0,1,379.94,274.14Z" transform="translate(0.13 -95.86)"/><polygon class="bd76d53b-297e-4615-8786-cd7f61659b60" points="391.69 163.83 395.91 163.83 398.38 153.56 395.45 153.14 391.69 163.83"/><polygon class="bd76d53b-297e-4615-8786-cd7f61659b60" points="367.38 152.73 364.45 153.14 365.69 163.83 369.82 163.83 367.38 152.73"/><path class="a027961b-6909-4a07-ae70-1c284ab6e5b2" d="M438.89,216H341.23a8.68,8.68,0,0,0-8.68,8.68v14.54a8.68,8.68,0,0,0,8.68,8.68h97.66a8.68,8.68,0,0,0,8.68-8.68V224.65A8.68,8.68,0,0,0,438.89,216Z" transform="translate(0.13 -95.86)"/><path class="b03d7648-5bfe-4aaf-a69f-a97405b419a2" d="M436,216H338.34a8.68,8.68,0,0,0-8.67,8.68v14.54a8.68,8.68,0,0,0,8.67,8.68H436a8.68,8.68,0,0,0,8.68-8.68V224.65A8.68,8.68,0,0,0,436,216Z" transform="translate(0.13 -95.86)"/><path class="bd76d53b-297e-4615-8786-cd7f61659b60" d="M437.4,240.5l-4.68-4.87a8,8,0,1,0-6.09,2.83,7.81,7.81,0,0,0,4.55-1.44l4.73,4.92a1.05,1.05,0,0,0,.75.32,1.08,1.08,0,0,0,.72-.29,1,1,0,0,0,0-1.47Zm-10.77-15.87a5.88,5.88,0,1,1-5.88,5.88,5.89,5.89,0,0,1,5.88-5.88Z" transform="translate(0.13 -95.86)"/><path class="a1f874ab-52ff-4859-85bf-5842f4cd7863" d="M443,359.76" transform="translate(0.13 -95.86)"/><path class="a1f874ab-52ff-4859-85bf-5842f4cd7863" d="M339.15,359.76" transform="translate(0.13 -95.86)"/><circle class="bd76d53b-297e-4615-8786-cd7f61659b60" cx="365.54" cy="151.47" r="2.51"/><path class="bd76d53b-297e-4615-8786-cd7f61659b60" d="M398.28,248a2.52,2.52,0,1,1-2.51-2.51A2.51,2.51,0,0,1,398.28,248Z" transform="translate(0.13 -95.86)"/><circle class="a027961b-6909-4a07-ae70-1c284ab6e5b2" cx="273.28" cy="160.55" r="2.75"/><path class="bb8c2851-03e4-4856-aaa4-ddbcb9d3db5a" d="M267.41,243.45l-23.54-4.13a7.38,7.38,0,0,0-8.55,6l-4.13,23.53a7.39,7.39,0,0,0,6,8.56l23.53,4.13a7.4,7.4,0,0,0,8.56-6L273.41,252A7.38,7.38,0,0,0,267.41,243.45Z" transform="translate(0.13 -95.86)"/><path class="a027961b-6909-4a07-ae70-1c284ab6e5b2" d="M153.51,376.89h17.31a1,1,0,0,0,.74-1.67l-16.65-18-1.46,1.35,15.09,16.3h-15v2Z" transform="translate(0.13 -95.86)"/><polygon class="a018e507-6640-4515-92a0-9ec3ea7376b8" points="275.22 159.87 282.65 162.77 304.25 164.81 297.04 169.9 281.86 166.25 274.11 162.7 275.22 159.87"/><circle class="bd76d53b-297e-4615-8786-cd7f61659b60" cx="295.66" cy="158.75" r="6.06"/><polygon class="a018e507-6640-4515-92a0-9ec3ea7376b8" points="324 181.64 321.51 206.85 322.34 229.01 313.75 229.01 313.29 227.36 319.18 226.57 316.04 206.95 313.21 182.55 324 181.64"/><path class="bd76d53b-297e-4615-8786-cd7f61659b60" d="M271.64,258.34c3.17,1.29,13.79,4.12,17.19,3.84l7.14-.57,7.37-1.94,16.19,7.93-8.63,12-14.75-12.27-8.72-.39c-3.58-.16-13.75-4-16.84-5.87Z" transform="translate(0.13 -95.86)"/><path class="a018e507-6640-4515-92a0-9ec3ea7376b8" d="M302.13,250.9c-1.26-2.85-6.33-3.54-9.15-2.22a4.71,4.71,0,0,0-.48.29,3.26,3.26,0,0,0,.4,1.29,5.32,5.32,0,0,0,4,2.39s.12.31.29.8a1.72,1.72,0,0,1,.64-.48,2.24,2.24,0,0,1,1.38,0c1.46.41,1.45,2.45.45,3.33a3.24,3.24,0,0,1-1.13.6l-.15,0c-.13,2,0,2.19.42,2.8C301.13,258,303.79,254.66,302.13,250.9Z" transform="translate(0.13 -95.86)"/><polygon class="a027961b-6909-4a07-ae70-1c284ab6e5b2" points="350.44 178.29 335.95 184.6 319.26 171.78 310.7 183.52 335.94 191.27 350.87 181.25 354.05 184.79 355.12 183.76 350.44 178.29"/><circle class="a027961b-6909-4a07-ae70-1c284ab6e5b2" cx="270.09" cy="163.37" r="2.75"/><path class="a027961b-6909-4a07-ae70-1c284ab6e5b2" d="M152.62,188.6h19.54V385H152.62Zm17.54,2H154.62V383h15.54Z" transform="translate(0.13 -95.86)"/><rect class="a018e507-6640-4515-92a0-9ec3ea7376b8" x="150.08" y="278.61" width="24.88" height="17.83"/><path class="a027961b-6909-4a07-ae70-1c284ab6e5b2" d="M153.51,303.09h17.31a1,1,0,0,0,.74-1.67l-16.65-18-1.46,1.35,15.09,16.3h-15v2Z" transform="translate(0.13 -95.86)"/><path class="a027961b-6909-4a07-ae70-1c284ab6e5b2" d="M153.51,321.55h17.31a1,1,0,0,0,.92-.6,1,1,0,0,0-.18-1.08l-16.65-18-1.46,1.36,15.09,16.29h-15v2Z" transform="translate(0.13 -95.86)"/><path class="a027961b-6909-4a07-ae70-1c284ab6e5b2" d="M153.51,340h17.31a1,1,0,0,0,.92-.6,1,1,0,0,0-.18-1.08l-16.65-18-1.46,1.36L168.54,338h-15v2Z" transform="translate(0.13 -95.86)"/><path class="a027961b-6909-4a07-ae70-1c284ab6e5b2" d="M153.51,358.44h17.31a1,1,0,0,0,.92-.6,1,1,0,0,0-.18-1.07l-16.65-18-1.46,1.36,15.09,16.29h-15v2Z" transform="translate(0.13 -95.86)"/><path class="a027961b-6909-4a07-ae70-1c284ab6e5b2" d="M153.51,285.09h17.31a1,1,0,0,0,.92-.6,1,1,0,0,0-.18-1.08l-16.65-18-1.46,1.35,15.09,16.3h-15v2Z" transform="translate(0.13 -95.86)"/><path class="a027961b-6909-4a07-ae70-1c284ab6e5b2" d="M153.51,267.05h17.31a1,1,0,0,0,.92-.6,1,1,0,0,0-.18-1.08l-16.65-18-1.46,1.35,15.09,16.3h-15v2Z" transform="translate(0.13 -95.86)"/><path class="a027961b-6909-4a07-ae70-1c284ab6e5b2" d="M153.51,249h17.31a1,1,0,0,0,.92-.6,1,1,0,0,0-.18-1.07l-16.65-18-1.46,1.36L168.54,247h-15v2Z" transform="translate(0.13 -95.86)"/><path class="a027961b-6909-4a07-ae70-1c284ab6e5b2" d="M153.51,231h17.31a1,1,0,0,0,.92-.6,1,1,0,0,0-.18-1.07l-16.65-18-1.46,1.36L168.54,229h-15v2Z" transform="translate(0.13 -95.86)"/><path class="a027961b-6909-4a07-ae70-1c284ab6e5b2" d="M153.51,213h17.31a1,1,0,0,0,.74-1.67l-16.65-18-1.46,1.35L168.54,211h-15v2Z" transform="translate(0.13 -95.86)"/><path class="a027961b-6909-4a07-ae70-1c284ab6e5b2" d="M153.51,195h17.31a1,1,0,0,0,.74-1.68l-16.65-18-1.46,1.36L168.54,193h-15v2Z" transform="translate(0.13 -95.86)"/><rect class="a018e507-6640-4515-92a0-9ec3ea7376b8" x="152.78" y="72.81" width="31.67" height="26.7"/><rect class="a018e507-6640-4515-92a0-9ec3ea7376b8" x="105.19" y="72.81" width="31.67" height="15.34"/><path class="a027961b-6909-4a07-ae70-1c284ab6e5b2" d="M105.58,170.63H262a1,1,0,0,0,0-2H105.58a1,1,0,0,0,0,2Z" transform="translate(0.13 -95.86)"/><rect class="a027961b-6909-4a07-ae70-1c284ab6e5b2" x="253.88" y="78.43" width="1" height="64.9"/><path class="a027961b-6909-4a07-ae70-1c284ab6e5b2" d="M161.5,169" transform="translate(0.13 -95.86)"/><rect class="a027961b-6909-4a07-ae70-1c284ab6e5b2" x="141.59" y="293.25" width="41.86" height="7.85"/><path class="a027961b-6909-4a07-ae70-1c284ab6e5b2" d="M168.38,170.37a.5.5,0,0,0,.35-.15l8.34-8.34h76.47l7.84,7.84a.5.5,0,1,0,.71-.71L254,160.88H176.66L168,169.51a.51.51,0,0,0,0,.71A.51.51,0,0,0,168.38,170.37Z" transform="translate(0.13 -95.86)"/><path class="a027961b-6909-4a07-ae70-1c284ab6e5b2" d="M104.92,170.37a.5.5,0,0,0,.44-.27l8.35-15.95H134l7.85,15.44a.5.5,0,0,0,.67.22.49.49,0,0,0,.22-.67l-8.12-16H113.11l-8.63,16.48a.51.51,0,0,0,.21.68A.46.46,0,0,0,104.92,170.37Z" transform="translate(0.13 -95.86)"/><circle class="a027961b-6909-4a07-ae70-1c284ab6e5b2" cx="254.38" cy="78.43" r="3.66"/><path class="a027961b-6909-4a07-ae70-1c284ab6e5b2" d="M232.61,161.87a.49.49,0,0,0,.47-.35.5.5,0,0,0-.33-.63l-73.92-22.54a.56.56,0,0,0-.34,0l-35,14.79a.5.5,0,0,0-.26.65.49.49,0,0,0,.65.27l34.87-14.72,73.75,22.49Z" transform="translate(0.13 -95.86)"/><path class="a027961b-6909-4a07-ae70-1c284ab6e5b2" d="M170.31,170.43a1.13,1.13,0,0,0,.36-.06,1,1,0,0,0,.57-1.29L159.6,138.45a1,1,0,0,0-1-.64,1,1,0,0,0-.9.8l-6,29.87a1,1,0,0,0,1.95.39L159,142.39l10.41,27.4A1,1,0,0,0,170.31,170.43Z" transform="translate(0.13 -95.86)"/><circle class="a027961b-6909-4a07-ae70-1c284ab6e5b2" cx="158.8" cy="42.94" r="2.01"/><path class="a027961b-6909-4a07-ae70-1c284ab6e5b2" d="M243.13,170.46a.51.51,0,0,0,.31-.11l9.81-7.93v7.41a.5.5,0,0,0,.5.5.5.5,0,0,0,.5-.5v-8.45a.48.48,0,0,0-.29-.45.49.49,0,0,0-.53.06l-10.61,8.58a.51.51,0,0,0-.08.71A.5.5,0,0,0,243.13,170.46Z" transform="translate(0.13 -95.86)"/><path class="a027961b-6909-4a07-ae70-1c284ab6e5b2" d="M233.65,170.46a.51.51,0,0,0,.31-.11l9.81-7.93v7.41a.5.5,0,0,0,.5.5.5.5,0,0,0,.5-.5v-8.45a.48.48,0,0,0-.29-.45.49.49,0,0,0-.53.06l-10.62,8.58a.52.52,0,0,0-.07.71A.5.5,0,0,0,233.65,170.46Z" transform="translate(0.13 -95.86)"/><path class="a027961b-6909-4a07-ae70-1c284ab6e5b2" d="M224.17,170.46a.51.51,0,0,0,.31-.11l9.81-7.93v7.41a.5.5,0,1,0,1,0v-8.45a.5.5,0,0,0-.81-.39l-10.62,8.58a.51.51,0,0,0-.07.71A.5.5,0,0,0,224.17,170.46Z" transform="translate(0.13 -95.86)"/><path class="a027961b-6909-4a07-ae70-1c284ab6e5b2" d="M214.69,170.46a.51.51,0,0,0,.31-.11l9.8-7.93v7.41a.5.5,0,0,0,.5.5.5.5,0,0,0,.5-.5v-8.45A.5.5,0,0,0,225,161l-10.62,8.58a.51.51,0,0,0-.07.71A.5.5,0,0,0,214.69,170.46Z" transform="translate(0.13 -95.86)"/><path class="a027961b-6909-4a07-ae70-1c284ab6e5b2" d="M205.2,170.46a.52.52,0,0,0,.32-.11l9.8-7.93v7.41a.5.5,0,0,0,.5.5.5.5,0,0,0,.5-.5v-8.45a.5.5,0,0,0-.81-.39l-10.62,8.58a.51.51,0,0,0-.07.71A.48.48,0,0,0,205.2,170.46Z" transform="translate(0.13 -95.86)"/><path class="a027961b-6909-4a07-ae70-1c284ab6e5b2" d="M195.72,170.46a.54.54,0,0,0,.32-.11l9.8-7.93v7.41a.5.5,0,0,0,.5.5.5.5,0,0,0,.5-.5v-8.45A.5.5,0,0,0,206,161l-10.62,8.58a.5.5,0,0,0-.07.71A.48.48,0,0,0,195.72,170.46Z" transform="translate(0.13 -95.86)"/><path class="a027961b-6909-4a07-ae70-1c284ab6e5b2" d="M186.24,170.46a.56.56,0,0,0,.32-.11l9.8-7.93v7.41a.5.5,0,0,0,.5.5.5.5,0,0,0,.5-.5v-8.45a.5.5,0,0,0-.81-.39l-10.62,8.58a.5.5,0,0,0,.31.89Z" transform="translate(0.13 -95.86)"/><path class="a027961b-6909-4a07-ae70-1c284ab6e5b2" d="M176.76,170.46a.51.51,0,0,0,.31-.11l9.81-7.93v7.41a.5.5,0,1,0,1,0v-8.45a.5.5,0,0,0-.81-.39l-10.62,8.58a.5.5,0,0,0,.31.89Z" transform="translate(0.13 -95.86)"/><path class="a027961b-6909-4a07-ae70-1c284ab6e5b2" d="M120.71,170.46a.49.49,0,0,0,.38-.18l12.74-15v14.58a.5.5,0,1,0,1,0V153.89a.49.49,0,0,0-.32-.46.5.5,0,0,0-.56.14l-13.61,16.07a.5.5,0,0,0,.38.82Z" transform="translate(0.13 -95.86)"/><path class="a027961b-6909-4a07-ae70-1c284ab6e5b2" d="M110.92,170.46a.49.49,0,0,0,.41-.22L121,155.55v14.28a.5.5,0,1,0,1,0V153.89a.5.5,0,0,0-.35-.48.5.5,0,0,0-.56.21L110.5,169.68a.51.51,0,0,0,.14.7A.57.57,0,0,0,110.92,170.46Z" transform="translate(0.13 -95.86)"/><circle class="a018e507-6640-4515-92a0-9ec3ea7376b8" cx="254.25" cy="240.52" r="3.14" transform="translate(-23.76 357.1) rotate(-80.78)"/><line class="b499aa7c-27d2-41fb-8d0f-dc95a466a8b2" x1="123.6" y1="301.84" x2="199.49" y2="301.84"/><polygon class="b03d7648-5bfe-4aaf-a69f-a97405b419a2" points="439.49 334.13 438.36 318.47 440.11 306.95 446.06 272.99 443.18 272.58 436.62 302.53 426.36 303.35 415.69 272.99 412.82 273.4 420.62 305.81 423.35 318.2 423.03 333.3 439.49 334.13"/><polygon class="a018e507-6640-4515-92a0-9ec3ea7376b8" points="425.36 292.27 424.34 301.23 430.44 301.71 434.16 292.27 425.36 292.27"/><path class="bd76d53b-297e-4615-8786-cd7f61659b60" d="M436.46,391.42a6.15,6.15,0,1,1-6.15-6.15A6.15,6.15,0,0,1,436.46,391.42Z" transform="translate(0.13 -95.86)"/><path class="a027961b-6909-4a07-ae70-1c284ab6e5b2" d="M441.69,331h-23.9a7.39,7.39,0,0,0-7.39,7.39V362.3a7.39,7.39,0,0,0,7.39,7.39h23.9a7.39,7.39,0,0,0,7.39-7.39V338.41A7.39,7.39,0,0,0,441.69,331Z" transform="translate(0.13 -95.86)"/><path class="a018e507-6640-4515-92a0-9ec3ea7376b8" d="M432.57,391a.52.52,0,0,0,.38.07c.13-.05.19-.18.27-.29a1,1,0,0,1,1.4-.05,1.25,1.25,0,0,1,.14,1.46,1.74,1.74,0,0,1-1.28.82,11.59,11.59,0,0,0-.41,3.75l2.54.19a.51.51,0,0,0,.67-.49,21.13,21.13,0,0,0,.47-4.42,8.12,8.12,0,0,0-.92-4.18c-.9-1.48-4.56-3.92-6.35-2.55C427.51,386.83,431.2,390.36,432.57,391Z" transform="translate(0.13 -95.86)"/><path class="a018e507-6640-4515-92a0-9ec3ea7376b8" d="M427.47,388.89a5.92,5.92,0,0,1-3.85,1.86,5.5,5.5,0,0,1,1.89-4.32c.69-.6,3-1.91,4-1.28S428.17,388.21,427.47,388.89Z" transform="translate(0.13 -95.86)"/><polygon class="b03d7648-5bfe-4aaf-a69f-a97405b419a2" points="439.88 287.64 443.28 288.83 446.06 272.99 443.18 272.58 439.88 287.64"/><polygon class="b03d7648-5bfe-4aaf-a69f-a97405b419a2" points="420.1 285.53 416.11 287.1 412.82 273.4 415.69 272.99 420.1 285.53"/><polygon class="b03d7648-5bfe-4aaf-a69f-a97405b419a2" points="433.41 302.79 430.46 308.02 428.98 303.15 433.41 302.79"/><path class="bd76d53b-297e-4615-8786-cd7f61659b60" d="M411.4,367.21a2.47,2.47,0,1,0,2.47-2.46A2.47,2.47,0,0,0,411.4,367.21Z" transform="translate(0.13 -95.86)"/><path class="bd76d53b-297e-4615-8786-cd7f61659b60" d="M442.31,367.67a2.47,2.47,0,1,0,2.46-2.46A2.46,2.46,0,0,0,442.31,367.67Z" transform="translate(0.13 -95.86)"/><path class="a018e507-6640-4515-92a0-9ec3ea7376b8" d="M423.87,444.77l3.79-10.5.35-3.34-4.94-12.78-5.24,23.48C420.07,442.83,422.26,444,423.87,444.77Z" transform="translate(0.13 -95.86)"/><circle class="bd76d53b-297e-4615-8786-cd7f61659b60" cx="429.78" cy="247.9" r="5.06"/><path class="bd76d53b-297e-4615-8786-cd7f61659b60" d="M439.6,359.12a9.7,9.7,0,0,0-19.39,0Z" transform="translate(0.13 -95.86)"/><path class="a1f874ab-52ff-4859-85bf-5842f4cd7863" d="M467.09,476.09" transform="translate(0.13 -95.86)"/><path class="a1f874ab-52ff-4859-85bf-5842f4cd7863" d="M391.2,476.09" transform="translate(0.13 -95.86)"/><polygon class="a018e507-6640-4515-92a0-9ec3ea7376b8" points="438.89 323.02 423.2 322.29 411.13 376.36 405.52 372.95 412.35 381.22 428.42 336.66 428.18 356.87 439.07 371.31 439.77 376.52 440.06 378.74 442 378.51 442.35 370.57 433.91 356.85 439.87 334.14 438.89 323.02"/><path class="e3c303b8-9210-4ede-96e4-e4ca82480750" d="M289.35,405.7" transform="translate(0.13 -95.86)"/><path class="a027961b-6909-4a07-ae70-1c284ab6e5b2" d="M211,282.09H187.14a7.39,7.39,0,0,0-7.4,7.39v23.9a7.39,7.39,0,0,0,7.4,7.38H211a7.39,7.39,0,0,0,7.39-7.38v-23.9A7.39,7.39,0,0,0,211,282.09Z" transform="translate(0.13 -95.86)"/><polygon class="b03d7648-5bfe-4aaf-a69f-a97405b419a2" points="189.13 287.66 186.22 257.71 182.48 225.68 185.39 225.26 192.05 255.63 202.44 256.46 213.26 225.68 216.18 226.09 208.27 258.96 208.69 286.83 189.13 287.66"/><path class="bd76d53b-297e-4615-8786-cd7f61659b60" d="M186.93,319.88a2.5,2.5,0,1,1-2.5-2.5A2.5,2.5,0,0,1,186.93,319.88Z" transform="translate(0.13 -95.86)"/><circle class="bd76d53b-297e-4615-8786-cd7f61659b60" cx="213.68" cy="224.84" r="2.5"/><circle class="bd76d53b-297e-4615-8786-cd7f61659b60" cx="197.48" cy="246.53" r="6.35"/><circle class="a018e507-6640-4515-92a0-9ec3ea7376b8" cx="197.48" cy="247.52" r="6.35"/><polygon class="a018e507-6640-4515-92a0-9ec3ea7376b8" points="208.69 286.83 205.8 332.77 202.62 332.77 199.92 287.2 197.08 287.32 195.35 333.9 192.9 333.84 189.13 287.66 188.58 281.98 208.62 282.23 208.69 286.83"/><polygon class="a018e507-6640-4515-92a0-9ec3ea7376b8" points="205.8 332.77 212.79 333.54 212.54 334.63 202.3 334.63 202.62 332.77 205.8 332.77"/><polygon class="a018e507-6640-4515-92a0-9ec3ea7376b8" points="195.35 333.9 195.35 335.2 185.75 335.56 185.75 334.37 192.9 333.84 195.35 333.9"/><path class="a1f874ab-52ff-4859-85bf-5842f4cd7863" d="M230.44,431.16" transform="translate(0.13 -95.86)"/><path class="a1f874ab-52ff-4859-85bf-5842f4cd7863" d="M174.53,431.16" transform="translate(0.13 -95.86)"/><path class="a018e507-6640-4515-92a0-9ec3ea7376b8" d="M349.67,435.75a1.81,1.81,0,0,1,0,.23l0,.06a.71.71,0,0,1-.08.18.05.05,0,0,1,0,0,1.37,1.37,0,0,1-.15.21l0,0-.19.19,0,0a1.89,1.89,0,0,1-.27.2l-.08.06a2.34,2.34,0,0,1-.27.15l-.1.06-.31.15-.12,0-.5.19-17,5.9-.51.14c-.25.07-.5.15-.77.21s-.66.14-1,.19l-.65.08-.8.08-.17,0c-.44,0-.88,0-1.32,0h0c-.46,0-.92,0-1.38,0h0c-.45,0-.9-.07-1.34-.13h0c-.43-.06-.84-.13-1.23-.22h0a10.36,10.36,0,0,1-1.14-.32l-16.77-5.74-.26-.1-.24-.09-.22-.1-.21-.1-.17-.11a1.18,1.18,0,0,1-.19-.11l-.14-.1-.16-.12-.12-.11-.11-.12a1.71,1.71,0,0,1-.11-.14l-.06-.09-.05-.12a.94.94,0,0,1-.08-.36l.06,7.5a.94.94,0,0,0,.08.36l.05.12.06.09.11.15.1.09.13.14.11.08.19.14.14.08.22.13.16.07.27.13.2.07a2.65,2.65,0,0,0,.3.11h0L320.05,451c.19.07.38.12.59.18l.51.13h.08l.4.08.45.08.38.06h.07l.44.05.45,0,.42,0a0,0,0,0,0,0,0h0l.46,0h1.48l.57,0,.21,0h.17l.31,0,.49-.06.65-.08.19,0c.24,0,.49-.08.72-.14l.1,0c.27-.06.52-.14.77-.21s.28-.06.4-.11l.11,0,17-5.89.48-.18h0l.13-.06.25-.12.05,0a.6.6,0,0,1,.11-.06l.15-.08.11-.07.08-.06.06,0,.2-.16h0l0,0,.13-.11.07-.08,0,0,0,0a.91.91,0,0,0,.11-.16h0l0,0a.31.31,0,0,0,.05-.1.31.31,0,0,0,0-.08l0-.05s0,0,0,0a.55.55,0,0,0,0-.18h0Z" transform="translate(0.13 -95.86)"/><path class="a027961b-6909-4a07-ae70-1c284ab6e5b2" d="M347.54,434c2.87,1,2.83,2.59-.08,3.6l-17,5.89a18.63,18.63,0,0,1-10.44,0l-16.77-5.74c-2.86-1-2.83-2.6.08-3.61l17-5.89a18.79,18.79,0,0,1,10.46,0Z" transform="translate(0.13 -95.86)"/><path class="a027961b-6909-4a07-ae70-1c284ab6e5b2" d="M275.36,427.58a.56.56,0,0,1,0,.22s0,0,0,.06a1.42,1.42,0,0,1-.08.18l0,0a1.43,1.43,0,0,1-.15.22l0,.05-.19.18,0,0a1.94,1.94,0,0,1-.27.21l-.09.06a1.59,1.59,0,0,1-.26.14.33.33,0,0,1-.1.06,3,3,0,0,1-.31.15l-.12.06-.5.19-17,5.89c-.16.06-.34.1-.51.15s-.5.14-.77.2-.66.14-1,.19l-.64.08c-.27,0-.53.07-.81.09h-.16c-.44,0-.88.05-1.32.05h0c-.46,0-.92,0-1.38,0h0c-.45,0-.9-.07-1.34-.13h0c-.43-.06-.84-.13-1.23-.22h0c-.41-.1-.79-.21-1.14-.32l-16.77-5.75-.26-.1a1,1,0,0,1-.24-.09l-.22-.1-.21-.1-.17-.1-.19-.11-.14-.1-.16-.12-.12-.12-.11-.11-.11-.14-.06-.09-.05-.12a.94.94,0,0,1-.08-.36l.06,7.5a.94.94,0,0,0,.08.36,1.17,1.17,0,0,0,.05.11s0,.06.07.1l.1.14.1.1.13.13.11.08a1.33,1.33,0,0,0,.19.14l.14.09.23.12.14.07.28.14.2.07a2.65,2.65,0,0,0,.3.11h0l16.77,5.75.59.18.51.13h.07l.41.09.45.08.38,0h.07l.44.06.45,0,.41,0h0l.46,0h1.48a5.12,5.12,0,0,0,.56,0h.39l.31,0,.49-.07.65-.08.18,0c.25-.05.49-.09.73-.15l.09,0,.78-.2.4-.11.11,0,17-5.89.48-.18h0l.12-.06a2.06,2.06,0,0,0,.26-.12l0,0,.11-.06.15-.08.1-.07.09-.06,0,0c.08-.05.14-.11.21-.16h0l0,0a.77.77,0,0,0,.13-.12l.07-.07,0-.05,0,0,.11-.15s0,0,0,0l0,0,.05-.1,0-.09s0,0,0-.05,0,0,0,0a.55.55,0,0,0,0-.18h0Z" transform="translate(0.13 -95.86)"/><path class="bd76d53b-297e-4615-8786-cd7f61659b60" d="M273.24,425.82c2.87,1,2.83,2.59-.08,3.59l-17,5.9a18.72,18.72,0,0,1-10.44,0l-16.77-5.74c-2.86-1-2.83-2.59.07-3.6l17-5.89a18.7,18.7,0,0,1,10.46-.05Z" transform="translate(0.13 -95.86)"/><line class="a17e6f5b-69ff-47bb-b3fe-38b8bd709ad1" x1="297.6" y1="309.83" x2="368.03" y2="309.83"/></svg>